<svg width="182" height="56" viewBox="0 0 182 56" fill="none" xmlns="http://www.w3.org/2000/svg">
<path d="M36.1667 31.375C36.1667 36.075 30.3333 39.6 30.3333 43.125H25.6667C25.6667 39.6 19.8333 36.075 19.8333 31.375C19.8333 26.8395 23.4967 23.15 28 23.15C32.5033 23.15 36.1667 26.8395 36.1667 31.375ZM30.3333 45.475H25.6667V49H30.3333V45.475ZM44.3333 30.2C44.3333 34.148 42.9567 37.7435 40.6467 40.587L43.96 43.924C47.0867 40.2345 49 35.4405 49 30.2C49 23.761 46.13 18.0035 41.6267 14.126L38.3133 17.463C41.9767 20.471 44.3333 25.077 44.3333 30.2ZM37.3333 11.4L28 2V9.05C16.4033 9.05 7 18.5205 7 30.2C7 35.4405 8.91333 40.2345 12.04 43.924L15.3533 40.587C13.0433 37.7435 11.6667 34.148 11.6667 30.2C11.6667 21.129 18.9933 13.75 28 13.75V20.8L37.3333 11.4Z" fill="#030231"/>
<path d="M80.1484 37H77.2656L68.3945 22.9609H68.3008C68.3242 23.3828 68.3516 23.8477 68.3828 24.3555C68.4141 24.8555 68.4375 25.3828 68.4531 25.9375C68.4766 26.4844 68.4922 27.0391 68.5 27.6016V37H66.2969V19.8672H69.1562L77.9922 33.8359H78.0742C78.0586 33.4922 78.0391 33.0664 78.0156 32.5586C77.9922 32.0508 77.9688 31.5156 77.9453 30.9531C77.9297 30.3828 77.9219 29.8438 77.9219 29.3359V19.8672H80.1484V37ZM94.3633 37H84.7422V19.8672H94.3633V21.9297H87.1445V27.0273H93.9297V29.0664H87.1445V34.9258H94.3633V37ZM110.148 37H107.406L102.941 29.7227L98.418 37H95.8633L101.559 28.0938L96.25 19.8672H98.9102L103.047 26.5352L107.172 19.8672H109.738L104.418 28.1172L110.148 37ZM118.117 37H115.703V21.9414H110.5V19.8672H123.309V21.9414H118.117V37Z" fill="#030231"/>
<path d="M130.645 19.8672C132.855 19.8672 134.469 20.3086 135.484 21.1914C136.508 22.0742 137.02 23.3281 137.02 24.9531C137.02 25.6875 136.902 26.3867 136.668 27.0508C136.434 27.707 136.051 28.2891 135.52 28.7969C134.996 29.2969 134.305 29.6953 133.445 29.9922C132.586 30.2812 131.531 30.4258 130.281 30.4258H128.324V37H125.922V19.8672H130.645ZM130.457 21.8828H128.324V28.3984H130.023C131.016 28.3984 131.848 28.2891 132.52 28.0703C133.191 27.8438 133.699 27.4844 134.043 26.9922C134.387 26.5 134.559 25.8516 134.559 25.0469C134.559 23.9844 134.227 23.1914 133.562 22.668C132.898 22.1445 131.863 21.8828 130.457 21.8828ZM140.523 37V19.8672H142.926V34.9141H150.367V37H140.523ZM166.527 19.8672V30.9531C166.527 32.1562 166.277 33.2305 165.777 34.1758C165.285 35.1211 164.539 35.8672 163.539 36.4141C162.539 36.9609 161.281 37.2344 159.766 37.2344C157.617 37.2344 155.977 36.6602 154.844 35.5117C153.719 34.3555 153.156 32.8203 153.156 30.9062V19.8672H155.57V30.8125C155.57 32.2578 155.93 33.3477 156.648 34.082C157.375 34.8164 158.453 35.1836 159.883 35.1836C160.867 35.1836 161.672 35.0078 162.297 34.6562C162.922 34.2969 163.383 33.793 163.68 33.1445C163.984 32.4883 164.137 31.7109 164.137 30.8125V19.8672H166.527ZM180.777 32.3945C180.777 33.4102 180.523 34.2812 180.016 35.0078C179.516 35.7266 178.809 36.2773 177.895 36.6602C176.98 37.043 175.895 37.2344 174.637 37.2344C174.004 37.2344 173.398 37.1992 172.82 37.1289C172.25 37.0664 171.719 36.9727 171.227 36.8477C170.734 36.7227 170.289 36.5664 169.891 36.3789V34.1055C170.539 34.3711 171.289 34.6211 172.141 34.8555C172.992 35.082 173.871 35.1953 174.777 35.1953C175.566 35.1953 176.227 35.0898 176.758 34.8789C177.297 34.6602 177.703 34.3555 177.977 33.9648C178.25 33.5742 178.387 33.1055 178.387 32.5586C178.387 32.0117 178.254 31.5547 177.988 31.1875C177.723 30.8125 177.301 30.4688 176.723 30.1562C176.152 29.8438 175.402 29.5117 174.473 29.1602C173.824 28.9258 173.234 28.6602 172.703 28.3633C172.172 28.0586 171.711 27.7109 171.32 27.3203C170.938 26.9297 170.641 26.4727 170.43 25.9492C170.219 25.418 170.113 24.8086 170.113 24.1211C170.113 23.1758 170.344 22.3672 170.805 21.6953C171.273 21.0234 171.926 20.5117 172.762 20.1602C173.598 19.8008 174.566 19.6211 175.668 19.6211C176.574 19.6211 177.418 19.7109 178.199 19.8906C178.988 20.0703 179.738 20.3164 180.449 20.6289L179.688 22.6211C179.023 22.3477 178.355 22.125 177.684 21.9531C177.012 21.7812 176.316 21.6953 175.598 21.6953C174.934 21.6953 174.371 21.793 173.91 21.9883C173.457 22.1836 173.109 22.4609 172.867 22.8203C172.633 23.1797 172.516 23.6055 172.516 24.0977C172.516 24.6523 172.641 25.1133 172.891 25.4805C173.141 25.8477 173.535 26.1797 174.074 26.4766C174.613 26.7734 175.316 27.0898 176.184 27.4258C177.16 27.8008 177.988 28.1992 178.668 28.6211C179.355 29.043 179.879 29.5508 180.238 30.1445C180.598 30.7383 180.777 31.4883 180.777 32.3945Z" fill="#0B07C5"/>
</svg>
