<svg width="221" height="221" viewBox="0 0 221 221" fill="none" xmlns="http://www.w3.org/2000/svg">
<g clip-path="url(#clip0_220_3528)">
<rect width="156" height="156" transform="matrix(0.654887 0.755727 -0.755824 0.654775 118 0)" fill="#FBE084"/>
<rect width="3" height="3" transform="matrix(0.654887 0.755727 -0.755824 0.654775 118 0)" fill="white"/>
<rect width="3" height="3" transform="matrix(0.654887 0.755727 -0.755824 0.654775 117.697 4.23096)" fill="white"/>
<rect width="3" height="3" transform="matrix(0.654887 0.755727 -0.755824 0.654775 117.394 8.46338)" fill="white"/>
<rect width="3" height="3" transform="matrix(0.654887 0.755727 -0.755824 0.654775 214.269 111.092)" fill="white"/>
<rect width="3" height="3" transform="matrix(0.654887 0.755727 -0.755824 0.654775 213.965 115.323)" fill="white"/>
<rect width="3" height="3" transform="matrix(0.654887 0.755727 -0.755824 0.654775 213.662 119.555)" fill="white"/>
<rect width="3" height="3" transform="matrix(0.654887 0.755727 -0.755824 0.654775 165.807 55.168)" fill="white"/>
<rect width="3" height="3" transform="matrix(0.654887 0.755727 -0.755824 0.654775 165.503 59.3989)" fill="white"/>
<rect width="3" height="3" transform="matrix(0.654887 0.755727 -0.755824 0.654775 165.2 63.6313)" fill="white"/>
<rect width="3" height="3" transform="matrix(0.654887 0.755727 -0.755824 0.654775 76.4297 36.0127)" fill="white"/>
<rect width="3" height="3" transform="matrix(0.654887 0.755727 -0.755824 0.654775 76.1265 40.2437)" fill="white"/>
<rect width="3" height="3" transform="matrix(0.654887 0.755727 -0.755824 0.654775 75.8232 44.4761)" fill="white"/>
<rect width="3" height="3" transform="matrix(0.654887 0.755727 -0.755824 0.654775 172.698 147.104)" fill="white"/>
<rect width="3" height="3" transform="matrix(0.654887 0.755727 -0.755824 0.654775 172.395 151.335)" fill="white"/>
<rect width="3" height="3" transform="matrix(0.654887 0.755727 -0.755824 0.654775 172.092 155.568)" fill="white"/>
<rect width="3" height="3" transform="matrix(0.654887 0.755727 -0.755824 0.654775 124.236 91.1807)" fill="white"/>
<rect width="3" height="3" transform="matrix(0.654887 0.755727 -0.755824 0.654775 123.933 95.4116)" fill="white"/>
<rect width="3" height="3" transform="matrix(0.654887 0.755727 -0.755824 0.654775 123.63 99.644)" fill="white"/>
<rect width="3" height="3" transform="matrix(0.654887 0.755727 -0.755824 0.654775 142.231 27.9619)" fill="white"/>
<rect width="3" height="3" transform="matrix(0.654887 0.755727 -0.755824 0.654775 141.928 32.1929)" fill="white"/>
<rect width="3" height="3" transform="matrix(0.654887 0.755727 -0.755824 0.654775 141.625 36.4253)" fill="white"/>
<rect width="3" height="3" transform="matrix(0.654887 0.755727 -0.755824 0.654775 190.038 83.1299)" fill="white"/>
<rect width="3" height="3" transform="matrix(0.654887 0.755727 -0.755824 0.654775 189.734 87.3608)" fill="white"/>
<rect width="3" height="3" transform="matrix(0.654887 0.755727 -0.755824 0.654775 189.431 91.5933)" fill="white"/>
<rect width="3" height="3" transform="matrix(0.654887 0.755727 -0.755824 0.654775 100.661 63.9746)" fill="white"/>
<rect width="3" height="3" transform="matrix(0.654887 0.755727 -0.755824 0.654775 100.357 68.2056)" fill="white"/>
<rect width="3" height="3" transform="matrix(0.654887 0.755727 -0.755824 0.654775 100.054 72.438)" fill="white"/>
<rect width="3" height="3" transform="matrix(0.654887 0.755727 -0.755824 0.654775 148.467 119.143)" fill="white"/>
<rect width="3" height="3" transform="matrix(0.654887 0.755727 -0.755824 0.654775 148.164 123.374)" fill="white"/>
<rect width="3" height="3" transform="matrix(0.654887 0.755727 -0.755824 0.654775 147.861 127.606)" fill="white"/>
<rect width="3" height="3" transform="matrix(0.654887 0.755727 -0.755824 0.654775 121.068 46.2954)" fill="white"/>
<rect width="3" height="3" transform="matrix(0.654887 0.755727 -0.755824 0.654775 120.765 50.5264)" fill="white"/>
<rect width="3" height="3" transform="matrix(0.654887 0.755727 -0.755824 0.654775 120.461 54.7588)" fill="white"/>
<rect width="3" height="3" transform="matrix(0.654887 0.755727 -0.755824 0.654775 168.875 101.464)" fill="white"/>
<rect width="3" height="3" transform="matrix(0.654887 0.755727 -0.755824 0.654775 168.571 105.695)" fill="white"/>
<rect width="3" height="3" transform="matrix(0.654887 0.755727 -0.755824 0.654775 168.268 109.927)" fill="white"/>
<rect width="3" height="3" transform="matrix(0.654887 0.755727 -0.755824 0.654775 79.4976 82.3081)" fill="white"/>
<rect width="3" height="3" transform="matrix(0.654887 0.755727 -0.755824 0.654775 79.1943 86.5391)" fill="white"/>
<rect width="3" height="3" transform="matrix(0.654887 0.755727 -0.755824 0.654775 78.8911 90.7715)" fill="white"/>
<rect width="3" height="3" transform="matrix(0.654887 0.755727 -0.755824 0.654775 127.304 137.476)" fill="white"/>
<rect width="3" height="3" transform="matrix(0.654887 0.755727 -0.755824 0.654775 127.001 141.707)" fill="white"/>
<rect width="3" height="3" transform="matrix(0.654887 0.755727 -0.755824 0.654775 126.698 145.939)" fill="white"/>
<rect width="3" height="3" transform="matrix(0.654887 0.755727 -0.755824 0.654775 52.2876 105.88)" fill="white"/>
<rect width="3" height="3" transform="matrix(0.654887 0.755727 -0.755824 0.654775 51.9844 110.111)" fill="white"/>
<rect width="3" height="3" transform="matrix(0.654887 0.755727 -0.755824 0.654775 51.6812 114.344)" fill="white"/>
<rect width="3" height="3" transform="matrix(0.654887 0.755727 -0.755824 0.654775 100.095 161.048)" fill="white"/>
<rect width="3" height="3" transform="matrix(0.654887 0.755727 -0.755824 0.654775 99.7915 165.279)" fill="white"/>
<rect width="3" height="3" transform="matrix(0.654887 0.755727 -0.755824 0.654775 99.4883 169.512)" fill="white"/>
<rect width="3" height="3" transform="matrix(0.654887 0.755727 -0.755824 0.654775 96.8369 18.3335)" fill="white"/>
<rect width="3" height="3" transform="matrix(0.654887 0.755727 -0.755824 0.654775 96.5337 22.5645)" fill="white"/>
<rect width="3" height="3" transform="matrix(0.654887 0.755727 -0.755824 0.654775 96.2305 26.7969)" fill="white"/>
<rect width="3" height="3" transform="matrix(0.654887 0.755727 -0.755824 0.654775 193.105 129.426)" fill="white"/>
<rect width="3" height="3" transform="matrix(0.654887 0.755727 -0.755824 0.654775 192.802 133.657)" fill="white"/>
<rect width="3" height="3" transform="matrix(0.654887 0.755727 -0.755824 0.654775 192.499 137.889)" fill="white"/>
<rect width="3" height="3" transform="matrix(0.654887 0.755727 -0.755824 0.654775 144.644 73.502)" fill="white"/>
<rect width="3" height="3" transform="matrix(0.654887 0.755727 -0.755824 0.654775 144.34 77.7329)" fill="white"/>
<rect width="3" height="3" transform="matrix(0.654887 0.755727 -0.755824 0.654775 144.037 81.9653)" fill="white"/>
<rect width="3" height="3" transform="matrix(0.654887 0.755727 -0.755824 0.654775 55.2666 54.3462)" fill="white"/>
<rect width="3" height="3" transform="matrix(0.654887 0.755727 -0.755824 0.654775 54.9634 58.5771)" fill="white"/>
<rect width="3" height="3" transform="matrix(0.654887 0.755727 -0.755824 0.654775 54.6602 62.8096)" fill="white"/>
<rect width="3" height="3" transform="matrix(0.654887 0.755727 -0.755824 0.654775 151.535 165.438)" fill="white"/>
<rect width="3" height="3" transform="matrix(0.654887 0.755727 -0.755824 0.654775 151.232 169.669)" fill="white"/>
<rect width="3" height="3" transform="matrix(0.654887 0.755727 -0.755824 0.654775 150.929 173.901)" fill="white"/>
<rect width="3" height="3" transform="matrix(0.654887 0.755727 -0.755824 0.654775 103.073 109.515)" fill="white"/>
<rect width="3" height="3" transform="matrix(0.654887 0.755727 -0.755824 0.654775 102.77 113.746)" fill="white"/>
<rect width="3" height="3" transform="matrix(0.654887 0.755727 -0.755824 0.654775 102.467 117.978)" fill="white"/>
<rect width="3" height="3" transform="matrix(0.654887 0.755727 -0.755824 0.654775 28.0571 77.9185)" fill="white"/>
<rect width="3" height="3" transform="matrix(0.654887 0.755727 -0.755824 0.654775 27.7539 82.1494)" fill="white"/>
<rect width="3" height="3" transform="matrix(0.654887 0.755727 -0.755824 0.654775 27.4507 86.3818)" fill="white"/>
<rect width="3" height="3" transform="matrix(0.654887 0.755727 -0.755824 0.654775 124.325 189.01)" fill="white"/>
<rect width="3" height="3" transform="matrix(0.654887 0.755727 -0.755824 0.654775 124.022 193.241)" fill="white"/>
<rect width="3" height="3" transform="matrix(0.654887 0.755727 -0.755824 0.654775 123.719 197.474)" fill="white"/>
<rect width="3" height="3" transform="matrix(0.654887 0.755727 -0.755824 0.654775 75.8638 133.086)" fill="white"/>
<rect width="3" height="3" transform="matrix(0.654887 0.755727 -0.755824 0.654775 75.5605 137.317)" fill="white"/>
<rect width="3" height="3" transform="matrix(0.654887 0.755727 -0.755824 0.654775 75.2573 141.55)" fill="white"/>
<rect width="3" height="3" transform="matrix(0.654887 0.755727 -0.755824 0.654775 111.198 5.89307)" fill="white"/>
<rect width="3" height="3" transform="matrix(0.654887 0.755727 -0.755824 0.654775 110.895 10.124)" fill="white"/>
<rect width="3" height="3" transform="matrix(0.654887 0.755727 -0.755824 0.654775 110.591 14.3564)" fill="white"/>
<rect width="3" height="3" transform="matrix(0.654887 0.755727 -0.755824 0.654775 207.466 116.985)" fill="white"/>
<rect width="3" height="3" transform="matrix(0.654887 0.755727 -0.755824 0.654775 207.163 121.216)" fill="white"/>
<rect width="3" height="3" transform="matrix(0.654887 0.755727 -0.755824 0.654775 206.859 125.448)" fill="white"/>
<rect width="3" height="3" transform="matrix(0.654887 0.755727 -0.755824 0.654775 159.004 61.061)" fill="white"/>
<rect width="3" height="3" transform="matrix(0.654887 0.755727 -0.755824 0.654775 158.701 65.292)" fill="white"/>
<rect width="3" height="3" transform="matrix(0.654887 0.755727 -0.755824 0.654775 158.398 69.5244)" fill="white"/>
<rect width="3" height="3" transform="matrix(0.654887 0.755727 -0.755824 0.654775 69.6274 41.9058)" fill="white"/>
<rect width="3" height="3" transform="matrix(0.654887 0.755727 -0.755824 0.654775 69.3242 46.1367)" fill="white"/>
<rect width="3" height="3" transform="matrix(0.654887 0.755727 -0.755824 0.654775 69.021 50.3691)" fill="white"/>
<rect width="3" height="3" transform="matrix(0.654887 0.755727 -0.755824 0.654775 165.896 152.998)" fill="white"/>
<rect width="3" height="3" transform="matrix(0.654887 0.755727 -0.755824 0.654775 165.592 157.229)" fill="white"/>
<rect width="3" height="3" transform="matrix(0.654887 0.755727 -0.755824 0.654775 165.289 161.461)" fill="white"/>
<rect width="3" height="3" transform="matrix(0.654887 0.755727 -0.755824 0.654775 117.434 97.0737)" fill="white"/>
<rect width="3" height="3" transform="matrix(0.654887 0.755727 -0.755824 0.654775 117.131 101.305)" fill="white"/>
<rect width="3" height="3" transform="matrix(0.654887 0.755727 -0.755824 0.654775 116.828 105.537)" fill="white"/>
<rect width="3" height="3" transform="matrix(0.654887 0.755727 -0.755824 0.654775 135.428 33.855)" fill="white"/>
<rect width="3" height="3" transform="matrix(0.654887 0.755727 -0.755824 0.654775 135.125 38.0859)" fill="white"/>
<rect width="3" height="3" transform="matrix(0.654887 0.755727 -0.755824 0.654775 134.822 42.3184)" fill="white"/>
<rect width="3" height="3" transform="matrix(0.654887 0.755727 -0.755824 0.654775 183.235 89.0229)" fill="white"/>
<rect width="3" height="3" transform="matrix(0.654887 0.755727 -0.755824 0.654775 182.932 93.2539)" fill="white"/>
<rect width="3" height="3" transform="matrix(0.654887 0.755727 -0.755824 0.654775 182.629 97.4863)" fill="white"/>
<rect width="3" height="3" transform="matrix(0.654887 0.755727 -0.755824 0.654775 93.8579 69.8677)" fill="white"/>
<rect width="3" height="3" transform="matrix(0.654887 0.755727 -0.755824 0.654775 93.5547 74.0986)" fill="white"/>
<rect width="3" height="3" transform="matrix(0.654887 0.755727 -0.755824 0.654775 93.2515 78.3311)" fill="white"/>
<rect width="3" height="3" transform="matrix(0.654887 0.755727 -0.755824 0.654775 141.665 125.036)" fill="white"/>
<rect width="3" height="3" transform="matrix(0.654887 0.755727 -0.755824 0.654775 141.362 129.267)" fill="white"/>
<rect width="3" height="3" transform="matrix(0.654887 0.755727 -0.755824 0.654775 141.059 133.499)" fill="white"/>
<rect width="3" height="3" transform="matrix(0.654887 0.755727 -0.755824 0.654775 114.265 52.1885)" fill="white"/>
<rect width="3" height="3" transform="matrix(0.654887 0.755727 -0.755824 0.654775 113.962 56.4194)" fill="white"/>
<rect width="3" height="3" transform="matrix(0.654887 0.755727 -0.755824 0.654775 113.659 60.6519)" fill="white"/>
<rect width="3" height="3" transform="matrix(0.654887 0.755727 -0.755824 0.654775 162.072 107.356)" fill="white"/>
<rect width="3" height="3" transform="matrix(0.654887 0.755727 -0.755824 0.654775 161.769 111.587)" fill="white"/>
<rect width="3" height="3" transform="matrix(0.654887 0.755727 -0.755824 0.654775 161.466 115.82)" fill="white"/>
<rect width="3" height="3" transform="matrix(0.654887 0.755727 -0.755824 0.654775 72.6948 88.2012)" fill="white"/>
<rect width="3" height="3" transform="matrix(0.654887 0.755727 -0.755824 0.654775 72.3916 92.4321)" fill="white"/>
<rect width="3" height="3" transform="matrix(0.654887 0.755727 -0.755824 0.654775 72.0884 96.6646)" fill="white"/>
<rect width="3" height="3" transform="matrix(0.654887 0.755727 -0.755824 0.654775 120.502 143.369)" fill="white"/>
<rect width="3" height="3" transform="matrix(0.654887 0.755727 -0.755824 0.654775 120.199 147.6)" fill="white"/>
<rect width="3" height="3" transform="matrix(0.654887 0.755727 -0.755824 0.654775 119.896 151.833)" fill="white"/>
<rect width="3" height="3" transform="matrix(0.654887 0.755727 -0.755824 0.654775 45.4854 111.773)" fill="white"/>
<rect width="3" height="3" transform="matrix(0.654887 0.755727 -0.755824 0.654775 45.1821 116.004)" fill="white"/>
<rect width="3" height="3" transform="matrix(0.654887 0.755727 -0.755824 0.654775 44.8789 120.236)" fill="white"/>
<rect width="3" height="3" transform="matrix(0.654887 0.755727 -0.755824 0.654775 37.9272 118.321)" fill="white"/>
<rect width="3" height="3" transform="matrix(0.654887 0.755727 -0.755824 0.654775 37.624 122.552)" fill="white"/>
<rect width="3" height="3" transform="matrix(0.654887 0.755727 -0.755824 0.654775 37.3208 126.784)" fill="white"/>
<rect width="3" height="3" transform="matrix(0.654887 0.755727 -0.755824 0.654775 31.1245 124.214)" fill="white"/>
<rect width="3" height="3" transform="matrix(0.654887 0.755727 -0.755824 0.654775 30.8213 128.445)" fill="white"/>
<rect width="3" height="3" transform="matrix(0.654887 0.755727 -0.755824 0.654775 30.5181 132.677)" fill="white"/>
<rect width="3" height="3" transform="matrix(0.654887 0.755727 -0.755824 0.654775 93.292 166.941)" fill="white"/>
<rect width="3" height="3" transform="matrix(0.654887 0.755727 -0.755824 0.654775 92.9888 171.172)" fill="white"/>
<rect width="3" height="3" transform="matrix(0.654887 0.755727 -0.755824 0.654775 92.6855 175.405)" fill="white"/>
<rect width="3" height="3" transform="matrix(0.654887 0.755727 -0.755824 0.654775 85.7339 173.489)" fill="white"/>
<rect width="3" height="3" transform="matrix(0.654887 0.755727 -0.755824 0.654775 85.4307 177.72)" fill="white"/>
<rect width="3" height="3" transform="matrix(0.654887 0.755727 -0.755824 0.654775 85.1274 181.952)" fill="white"/>
<rect width="3" height="3" transform="matrix(0.654887 0.755727 -0.755824 0.654775 78.9316 179.382)" fill="white"/>
<rect width="3" height="3" transform="matrix(0.654887 0.755727 -0.755824 0.654775 78.6284 183.613)" fill="white"/>
<rect width="3" height="3" transform="matrix(0.654887 0.755727 -0.755824 0.654775 78.3252 187.845)" fill="white"/>
<rect width="3" height="3" transform="matrix(0.654887 0.755727 -0.755824 0.654775 90.0347 24.2266)" fill="white"/>
<rect width="3" height="3" transform="matrix(0.654887 0.755727 -0.755824 0.654775 89.7314 28.4575)" fill="white"/>
<rect width="3" height="3" transform="matrix(0.654887 0.755727 -0.755824 0.654775 89.4282 32.6899)" fill="white"/>
<rect width="3" height="3" transform="matrix(0.654887 0.755727 -0.755824 0.654775 186.303 135.318)" fill="white"/>
<rect width="3" height="3" transform="matrix(0.654887 0.755727 -0.755824 0.654775 186 139.549)" fill="white"/>
<rect width="3" height="3" transform="matrix(0.654887 0.755727 -0.755824 0.654775 185.696 143.782)" fill="white"/>
<rect width="3" height="3" transform="matrix(0.654887 0.755727 -0.755824 0.654775 137.841 79.3945)" fill="white"/>
<rect width="3" height="3" transform="matrix(0.654887 0.755727 -0.755824 0.654775 137.538 83.6255)" fill="white"/>
<rect width="3" height="3" transform="matrix(0.654887 0.755727 -0.755824 0.654775 137.235 87.8579)" fill="white"/>
<rect width="3" height="3" transform="matrix(0.654887 0.755727 -0.755824 0.654775 48.4644 60.2393)" fill="white"/>
<rect width="3" height="3" transform="matrix(0.654887 0.755727 -0.755824 0.654775 48.1611 64.4702)" fill="white"/>
<rect width="3" height="3" transform="matrix(0.654887 0.755727 -0.755824 0.654775 47.8579 68.7026)" fill="white"/>
<rect width="3" height="3" transform="matrix(0.654887 0.755727 -0.755824 0.654775 144.732 171.331)" fill="white"/>
<rect width="3" height="3" transform="matrix(0.654887 0.755727 -0.755824 0.654775 144.429 175.562)" fill="white"/>
<rect width="3" height="3" transform="matrix(0.654887 0.755727 -0.755824 0.654775 144.126 179.794)" fill="white"/>
<rect width="3" height="3" transform="matrix(0.654887 0.755727 -0.755824 0.654775 96.271 115.407)" fill="white"/>
<rect width="3" height="3" transform="matrix(0.654887 0.755727 -0.755824 0.654775 95.9678 119.638)" fill="white"/>
<rect width="3" height="3" transform="matrix(0.654887 0.755727 -0.755824 0.654775 95.6646 123.871)" fill="white"/>
<rect width="3" height="3" transform="matrix(0.654887 0.755727 -0.755824 0.654775 21.2544 83.811)" fill="white"/>
<rect width="3" height="3" transform="matrix(0.654887 0.755727 -0.755824 0.654775 20.9512 88.042)" fill="white"/>
<rect width="3" height="3" transform="matrix(0.654887 0.755727 -0.755824 0.654775 20.6479 92.2744)" fill="white"/>
<rect width="3" height="3" transform="matrix(0.654887 0.755727 -0.755824 0.654775 13.6963 90.3589)" fill="white"/>
<rect width="3" height="3" transform="matrix(0.654887 0.755727 -0.755824 0.654775 13.3931 94.5898)" fill="white"/>
<rect width="3" height="3" transform="matrix(0.654887 0.755727 -0.755824 0.654775 13.0898 98.8223)" fill="white"/>
<rect width="3" height="3" transform="matrix(0.654887 0.755727 -0.755824 0.654775 6.89404 96.252)" fill="white"/>
<rect width="3" height="3" transform="matrix(0.654887 0.755727 -0.755824 0.654775 6.59082 100.483)" fill="white"/>
<rect width="3" height="3" transform="matrix(0.654887 0.755727 -0.755824 0.654775 6.2876 104.715)" fill="white"/>
<rect width="3" height="3" transform="matrix(0.654887 0.755727 -0.755824 0.654775 117.523 194.903)" fill="white"/>
<rect width="3" height="3" transform="matrix(0.654887 0.755727 -0.755824 0.654775 117.22 199.134)" fill="white"/>
<rect width="3" height="3" transform="matrix(0.654887 0.755727 -0.755824 0.654775 116.917 203.367)" fill="white"/>
<rect width="3" height="3" transform="matrix(0.654887 0.755727 -0.755824 0.654775 109.965 201.451)" fill="white"/>
<rect width="3" height="3" transform="matrix(0.654887 0.755727 -0.755824 0.654775 109.662 205.682)" fill="white"/>
<rect width="3" height="3" transform="matrix(0.654887 0.755727 -0.755824 0.654775 109.358 209.914)" fill="white"/>
<rect width="3" height="3" transform="matrix(0.654887 0.755727 -0.755824 0.654775 103.162 207.344)" fill="white"/>
<rect width="3" height="3" transform="matrix(0.654887 0.755727 -0.755824 0.654775 102.859 211.575)" fill="white"/>
<rect width="3" height="3" transform="matrix(0.654887 0.755727 -0.755824 0.654775 102.556 215.807)" fill="white"/>
<rect width="3" height="3" transform="matrix(0.654887 0.755727 -0.755824 0.654775 69.0615 138.979)" fill="white"/>
<rect width="3" height="3" transform="matrix(0.654887 0.755727 -0.755824 0.654775 68.7583 143.21)" fill="white"/>
<rect width="3" height="3" transform="matrix(0.654887 0.755727 -0.755824 0.654775 68.4551 147.443)" fill="white"/>
<rect width="3" height="3" transform="matrix(0.654887 0.755727 -0.755824 0.654775 61.5029 145.527)" fill="white"/>
<rect width="3" height="3" transform="matrix(0.654887 0.755727 -0.755824 0.654775 61.1997 149.758)" fill="white"/>
<rect width="3" height="3" transform="matrix(0.654887 0.755727 -0.755824 0.654775 60.8965 153.99)" fill="white"/>
<rect width="3" height="3" transform="matrix(0.654887 0.755727 -0.755824 0.654775 54.7007 151.42)" fill="white"/>
<rect width="3" height="3" transform="matrix(0.654887 0.755727 -0.755824 0.654775 54.3975 155.651)" fill="white"/>
<rect width="3" height="3" transform="matrix(0.654887 0.755727 -0.755824 0.654775 54.0942 159.883)" fill="white"/>
<rect width="3" height="3" transform="matrix(0.654887 0.755727 -0.755824 0.654775 104.395 11.7861)" fill="white"/>
<rect width="3" height="3" transform="matrix(0.654887 0.755727 -0.755824 0.654775 104.092 16.0171)" fill="white"/>
<rect width="3" height="3" transform="matrix(0.654887 0.755727 -0.755824 0.654775 103.789 20.2495)" fill="white"/>
<rect width="3" height="3" transform="matrix(0.654887 0.755727 -0.755824 0.654775 200.664 122.878)" fill="white"/>
<rect width="3" height="3" transform="matrix(0.654887 0.755727 -0.755824 0.654775 200.36 127.109)" fill="white"/>
<rect width="3" height="3" transform="matrix(0.654887 0.755727 -0.755824 0.654775 200.057 131.341)" fill="white"/>
<rect width="3" height="3" transform="matrix(0.654887 0.755727 -0.755824 0.654775 152.202 66.9541)" fill="white"/>
<rect width="3" height="3" transform="matrix(0.654887 0.755727 -0.755824 0.654775 151.898 71.1851)" fill="white"/>
<rect width="3" height="3" transform="matrix(0.654887 0.755727 -0.755824 0.654775 151.595 75.4175)" fill="white"/>
<rect width="3" height="3" transform="matrix(0.654887 0.755727 -0.755824 0.654775 62.8247 47.7988)" fill="white"/>
<rect width="3" height="3" transform="matrix(0.654887 0.755727 -0.755824 0.654775 62.5215 52.0298)" fill="white"/>
<rect width="3" height="3" transform="matrix(0.654887 0.755727 -0.755824 0.654775 62.2183 56.2622)" fill="white"/>
<rect width="3" height="3" transform="matrix(0.654887 0.755727 -0.755824 0.654775 159.093 158.891)" fill="white"/>
<rect width="3" height="3" transform="matrix(0.654887 0.755727 -0.755824 0.654775 158.79 163.122)" fill="white"/>
<rect width="3" height="3" transform="matrix(0.654887 0.755727 -0.755824 0.654775 158.487 167.354)" fill="white"/>
<rect width="3" height="3" transform="matrix(0.654887 0.755727 -0.755824 0.654775 110.632 102.967)" fill="white"/>
<rect width="3" height="3" transform="matrix(0.654887 0.755727 -0.755824 0.654775 110.329 107.198)" fill="white"/>
<rect width="3" height="3" transform="matrix(0.654887 0.755727 -0.755824 0.654775 110.025 111.43)" fill="white"/>
<rect width="3" height="3" transform="matrix(0.654887 0.755727 -0.755824 0.654775 34.8594 72.0254)" fill="white"/>
<rect width="3" height="3" transform="matrix(0.654887 0.755727 -0.755824 0.654775 34.5562 76.2563)" fill="white"/>
<rect width="3" height="3" transform="matrix(0.654887 0.755727 -0.755824 0.654775 34.2529 80.4888)" fill="white"/>
<rect width="3" height="3" transform="matrix(0.654887 0.755727 -0.755824 0.654775 131.128 183.117)" fill="white"/>
<rect width="3" height="3" transform="matrix(0.654887 0.755727 -0.755824 0.654775 130.825 187.348)" fill="white"/>
<rect width="3" height="3" transform="matrix(0.654887 0.755727 -0.755824 0.654775 130.521 191.581)" fill="white"/>
<rect width="3" height="3" transform="matrix(0.654887 0.755727 -0.755824 0.654775 82.666 127.193)" fill="white"/>
<rect width="3" height="3" transform="matrix(0.654887 0.755727 -0.755824 0.654775 82.3628 131.424)" fill="white"/>
<rect width="3" height="3" transform="matrix(0.654887 0.755727 -0.755824 0.654775 82.0596 135.657)" fill="white"/>
<rect width="3" height="3" transform="matrix(0.654887 0.755727 -0.755824 0.654775 128.626 39.748)" fill="white"/>
<rect width="3" height="3" transform="matrix(0.654887 0.755727 -0.755824 0.654775 128.323 43.979)" fill="white"/>
<rect width="3" height="3" transform="matrix(0.654887 0.755727 -0.755824 0.654775 128.02 48.2114)" fill="white"/>
<rect width="3" height="3" transform="matrix(0.654887 0.755727 -0.755824 0.654775 176.433 94.916)" fill="white"/>
<rect width="3" height="3" transform="matrix(0.654887 0.755727 -0.755824 0.654775 176.129 99.147)" fill="white"/>
<rect width="3" height="3" transform="matrix(0.654887 0.755727 -0.755824 0.654775 175.826 103.379)" fill="white"/>
<rect width="3" height="3" transform="matrix(0.654887 0.755727 -0.755824 0.654775 87.0557 75.7603)" fill="white"/>
<rect width="3" height="3" transform="matrix(0.654887 0.755727 -0.755824 0.654775 86.7524 79.9912)" fill="white"/>
<rect width="3" height="3" transform="matrix(0.654887 0.755727 -0.755824 0.654775 86.4492 84.2236)" fill="white"/>
<rect width="3" height="3" transform="matrix(0.654887 0.755727 -0.755824 0.654775 134.862 130.929)" fill="white"/>
<rect width="3" height="3" transform="matrix(0.654887 0.755727 -0.755824 0.654775 134.559 135.16)" fill="white"/>
<rect width="3" height="3" transform="matrix(0.654887 0.755727 -0.755824 0.654775 134.256 139.392)" fill="white"/>
<rect width="3" height="3" transform="matrix(0.654887 0.755727 -0.755824 0.654775 59.0903 99.9873)" fill="white"/>
<rect width="3" height="3" transform="matrix(0.654887 0.755727 -0.755824 0.654775 58.7871 104.218)" fill="white"/>
<rect width="3" height="3" transform="matrix(0.654887 0.755727 -0.755824 0.654775 58.4839 108.451)" fill="white"/>
<rect width="3" height="3" transform="matrix(0.654887 0.755727 -0.755824 0.654775 106.897 155.155)" fill="white"/>
<rect width="3" height="3" transform="matrix(0.654887 0.755727 -0.755824 0.654775 106.594 159.386)" fill="white"/>
<rect width="3" height="3" transform="matrix(0.654887 0.755727 -0.755824 0.654775 106.291 163.619)" fill="white"/>
<rect width="3" height="3" transform="matrix(0.654887 0.755727 -0.755824 0.654775 107.463 58.0815)" fill="white"/>
<rect width="3" height="3" transform="matrix(0.654887 0.755727 -0.755824 0.654775 107.16 62.3125)" fill="white"/>
<rect width="3" height="3" transform="matrix(0.654887 0.755727 -0.755824 0.654775 106.856 66.5449)" fill="white"/>
<rect width="3" height="3" transform="matrix(0.654887 0.755727 -0.755824 0.654775 155.27 113.25)" fill="white"/>
<rect width="3" height="3" transform="matrix(0.654887 0.755727 -0.755824 0.654775 154.966 117.48)" fill="white"/>
<rect width="3" height="3" transform="matrix(0.654887 0.755727 -0.755824 0.654775 154.663 121.713)" fill="white"/>
<rect width="3" height="3" transform="matrix(0.654887 0.755727 -0.755824 0.654775 65.8926 94.0942)" fill="white"/>
<rect width="3" height="3" transform="matrix(0.654887 0.755727 -0.755824 0.654775 65.5894 98.3252)" fill="white"/>
<rect width="3" height="3" transform="matrix(0.654887 0.755727 -0.755824 0.654775 65.2861 102.558)" fill="white"/>
<rect width="3" height="3" transform="matrix(0.654887 0.755727 -0.755824 0.654775 113.699 149.262)" fill="white"/>
<rect width="3" height="3" transform="matrix(0.654887 0.755727 -0.755824 0.654775 113.396 153.493)" fill="white"/>
<rect width="3" height="3" transform="matrix(0.654887 0.755727 -0.755824 0.654775 113.093 157.726)" fill="white"/>
<rect width="3" height="3" transform="matrix(0.654887 0.755727 -0.755824 0.654775 83.2319 30.1196)" fill="white"/>
<rect width="3" height="3" transform="matrix(0.654887 0.755727 -0.755824 0.654775 82.9287 34.3506)" fill="white"/>
<rect width="3" height="3" transform="matrix(0.654887 0.755727 -0.755824 0.654775 82.6255 38.583)" fill="white"/>
<rect width="3" height="3" transform="matrix(0.654887 0.755727 -0.755824 0.654775 179.5 141.211)" fill="white"/>
<rect width="3" height="3" transform="matrix(0.654887 0.755727 -0.755824 0.654775 179.197 145.442)" fill="white"/>
<rect width="3" height="3" transform="matrix(0.654887 0.755727 -0.755824 0.654775 178.894 149.675)" fill="white"/>
<rect width="3" height="3" transform="matrix(0.654887 0.755727 -0.755824 0.654775 131.039 85.2876)" fill="white"/>
<rect width="3" height="3" transform="matrix(0.654887 0.755727 -0.755824 0.654775 130.736 89.5186)" fill="white"/>
<rect width="3" height="3" transform="matrix(0.654887 0.755727 -0.755824 0.654775 130.433 93.751)" fill="white"/>
<rect width="3" height="3" transform="matrix(0.654887 0.755727 -0.755824 0.654775 41.6616 66.1323)" fill="white"/>
<rect width="3" height="3" transform="matrix(0.654887 0.755727 -0.755824 0.654775 41.3584 70.3633)" fill="white"/>
<rect width="3" height="3" transform="matrix(0.654887 0.755727 -0.755824 0.654775 41.0552 74.5957)" fill="white"/>
<rect width="3" height="3" transform="matrix(0.654887 0.755727 -0.755824 0.654775 137.93 177.224)" fill="white"/>
<rect width="3" height="3" transform="matrix(0.654887 0.755727 -0.755824 0.654775 137.627 181.455)" fill="white"/>
<rect width="3" height="3" transform="matrix(0.654887 0.755727 -0.755824 0.654775 137.324 185.688)" fill="white"/>
<rect width="3" height="3" transform="matrix(0.654887 0.755727 -0.755824 0.654775 89.4688 121.3)" fill="white"/>
<rect width="3" height="3" transform="matrix(0.654887 0.755727 -0.755824 0.654775 89.1655 125.531)" fill="white"/>
<rect width="3" height="3" transform="matrix(0.654887 0.755727 -0.755824 0.654775 88.8623 129.764)" fill="white"/>
<rect width="3" height="3" transform="matrix(0.654887 0.755727 -0.755824 0.654775 116.183 25.3892)" fill="white"/>
<rect width="3" height="3" transform="matrix(0.654887 0.755727 -0.755824 0.654775 115.88 29.6201)" fill="white"/>
<rect width="3" height="3" transform="matrix(0.654887 0.755727 -0.755824 0.654775 115.577 33.8525)" fill="white"/>
<rect width="3" height="3" transform="matrix(0.654887 0.755727 -0.755824 0.654775 164.645 81.313)" fill="white"/>
<rect width="3" height="3" transform="matrix(0.654887 0.755727 -0.755824 0.654775 164.341 85.5439)" fill="white"/>
<rect width="3" height="3" transform="matrix(0.654887 0.755727 -0.755824 0.654775 164.038 89.7764)" fill="white"/>
<rect width="3" height="3" transform="matrix(0.654887 0.755727 -0.755824 0.654775 74.6128 61.4019)" fill="white"/>
<rect width="3" height="3" transform="matrix(0.654887 0.755727 -0.755824 0.654775 74.3096 65.6328)" fill="white"/>
<rect width="3" height="3" transform="matrix(0.654887 0.755727 -0.755824 0.654775 74.0063 69.8652)" fill="white"/>
<rect width="3" height="3" transform="matrix(0.654887 0.755727 -0.755824 0.654775 123.074 117.326)" fill="white"/>
<rect width="3" height="3" transform="matrix(0.654887 0.755727 -0.755824 0.654775 122.771 121.557)" fill="white"/>
<rect width="3" height="3" transform="matrix(0.654887 0.755727 -0.755824 0.654775 122.468 125.789)" fill="white"/>
<rect width="3" height="3" transform="matrix(0.654887 0.755727 -0.755824 0.654775 46.6475 85.6284)" fill="white"/>
<rect width="3" height="3" transform="matrix(0.654887 0.755727 -0.755824 0.654775 46.3442 89.8594)" fill="white"/>
<rect width="3" height="3" transform="matrix(0.654887 0.755727 -0.755824 0.654775 46.041 94.0918)" fill="white"/>
<rect width="3" height="3" transform="matrix(0.654887 0.755727 -0.755824 0.654775 95.1089 141.552)" fill="white"/>
<rect width="3" height="3" transform="matrix(0.654887 0.755727 -0.755824 0.654775 94.8057 145.783)" fill="white"/>
<rect width="3" height="3" transform="matrix(0.654887 0.755727 -0.755824 0.654775 94.5024 150.016)" fill="white"/>
<rect width="3" height="3" transform="matrix(0.654887 0.755727 -0.755824 0.654775 140.414 53.3511)" fill="white"/>
<rect width="3" height="3" transform="matrix(0.654887 0.755727 -0.755824 0.654775 140.111 57.582)" fill="white"/>
<rect width="3" height="3" transform="matrix(0.654887 0.755727 -0.755824 0.654775 139.808 61.8145)" fill="white"/>
<rect width="3" height="3" transform="matrix(0.654887 0.755727 -0.755824 0.654775 188.221 108.519)" fill="white"/>
<rect width="3" height="3" transform="matrix(0.654887 0.755727 -0.755824 0.654775 187.917 112.75)" fill="white"/>
<rect width="3" height="3" transform="matrix(0.654887 0.755727 -0.755824 0.654775 187.614 116.982)" fill="white"/>
<rect width="3" height="3" transform="matrix(0.654887 0.755727 -0.755824 0.654775 98.8438 89.3638)" fill="white"/>
<rect width="3" height="3" transform="matrix(0.654887 0.755727 -0.755824 0.654775 98.5405 93.5947)" fill="white"/>
<rect width="3" height="3" transform="matrix(0.654887 0.755727 -0.755824 0.654775 98.2373 97.8271)" fill="white"/>
<rect width="3" height="3" transform="matrix(0.654887 0.755727 -0.755824 0.654775 146.65 144.532)" fill="white"/>
<rect width="3" height="3" transform="matrix(0.654887 0.755727 -0.755824 0.654775 146.347 148.763)" fill="white"/>
<rect width="3" height="3" transform="matrix(0.654887 0.755727 -0.755824 0.654775 146.044 152.995)" fill="white"/>
<rect width="3" height="3" transform="matrix(0.654887 0.755727 -0.755824 0.654775 70.8779 113.59)" fill="white"/>
<rect width="3" height="3" transform="matrix(0.654887 0.755727 -0.755824 0.654775 70.5747 117.821)" fill="white"/>
<rect width="3" height="3" transform="matrix(0.654887 0.755727 -0.755824 0.654775 70.2715 122.054)" fill="white"/>
<rect width="3" height="3" transform="matrix(0.654887 0.755727 -0.755824 0.654775 118.685 168.758)" fill="white"/>
<rect width="3" height="3" transform="matrix(0.654887 0.755727 -0.755824 0.654775 118.382 172.989)" fill="white"/>
<rect width="3" height="3" transform="matrix(0.654887 0.755727 -0.755824 0.654775 118.079 177.222)" fill="white"/>
<rect width="3" height="3" transform="matrix(0.654887 0.755727 -0.755824 0.654775 119.251 71.6846)" fill="white"/>
<rect width="3" height="3" transform="matrix(0.654887 0.755727 -0.755824 0.654775 118.948 75.9155)" fill="white"/>
<rect width="3" height="3" transform="matrix(0.654887 0.755727 -0.755824 0.654775 118.645 80.1479)" fill="white"/>
<rect width="3" height="3" transform="matrix(0.654887 0.755727 -0.755824 0.654775 167.058 126.853)" fill="white"/>
<rect width="3" height="3" transform="matrix(0.654887 0.755727 -0.755824 0.654775 166.754 131.083)" fill="white"/>
<rect width="3" height="3" transform="matrix(0.654887 0.755727 -0.755824 0.654775 166.451 135.316)" fill="white"/>
<rect width="3" height="3" transform="matrix(0.654887 0.755727 -0.755824 0.654775 77.6807 107.697)" fill="white"/>
<rect width="3" height="3" transform="matrix(0.654887 0.755727 -0.755824 0.654775 77.3774 111.928)" fill="white"/>
<rect width="3" height="3" transform="matrix(0.654887 0.755727 -0.755824 0.654775 77.0742 116.161)" fill="white"/>
<rect width="3" height="3" transform="matrix(0.654887 0.755727 -0.755824 0.654775 125.487 162.865)" fill="white"/>
<rect width="3" height="3" transform="matrix(0.654887 0.755727 -0.755824 0.654775 125.184 167.096)" fill="white"/>
<rect width="3" height="3" transform="matrix(0.654887 0.755727 -0.755824 0.654775 124.881 171.329)" fill="white"/>
<rect width="3" height="3" transform="matrix(0.654887 0.755727 -0.755824 0.654775 95.02 43.7227)" fill="white"/>
<rect width="3" height="3" transform="matrix(0.654887 0.755727 -0.755824 0.654775 94.7168 47.9536)" fill="white"/>
<rect width="3" height="3" transform="matrix(0.654887 0.755727 -0.755824 0.654775 94.4136 52.186)" fill="white"/>
<rect width="3" height="3" transform="matrix(0.654887 0.755727 -0.755824 0.654775 143.481 99.6465)" fill="white"/>
<rect width="3" height="3" transform="matrix(0.654887 0.755727 -0.755824 0.654775 143.178 103.877)" fill="white"/>
<rect width="3" height="3" transform="matrix(0.654887 0.755727 -0.755824 0.654775 142.875 108.11)" fill="white"/>
<rect width="3" height="3" transform="matrix(0.654887 0.755727 -0.755824 0.654775 53.4497 79.7354)" fill="white"/>
<rect width="3" height="3" transform="matrix(0.654887 0.755727 -0.755824 0.654775 53.1465 83.9663)" fill="white"/>
<rect width="3" height="3" transform="matrix(0.654887 0.755727 -0.755824 0.654775 52.8433 88.1987)" fill="white"/>
<rect width="3" height="3" transform="matrix(0.654887 0.755727 -0.755824 0.654775 101.912 135.659)" fill="white"/>
<rect width="3" height="3" transform="matrix(0.654887 0.755727 -0.755824 0.654775 101.608 139.89)" fill="white"/>
<rect width="3" height="3" transform="matrix(0.654887 0.755727 -0.755824 0.654775 101.305 144.123)" fill="white"/>
<rect width="3" height="3" transform="matrix(0.654887 0.755727 -0.755824 0.654775 122.985 19.4961)" fill="white"/>
<rect width="3" height="3" transform="matrix(0.654887 0.755727 -0.755824 0.654775 122.682 23.7271)" fill="white"/>
<rect width="3" height="3" transform="matrix(0.654887 0.755727 -0.755824 0.654775 122.379 27.9595)" fill="white"/>
<rect width="3" height="3" transform="matrix(0.654887 0.755727 -0.755824 0.654775 171.447 75.4199)" fill="white"/>
<rect width="3" height="3" transform="matrix(0.654887 0.755727 -0.755824 0.654775 171.144 79.6509)" fill="white"/>
<rect width="3" height="3" transform="matrix(0.654887 0.755727 -0.755824 0.654775 170.841 83.8833)" fill="white"/>
<rect width="3" height="3" transform="matrix(0.654887 0.755727 -0.755824 0.654775 81.415 55.5088)" fill="white"/>
<rect width="3" height="3" transform="matrix(0.654887 0.755727 -0.755824 0.654775 81.1118 59.7397)" fill="white"/>
<rect width="3" height="3" transform="matrix(0.654887 0.755727 -0.755824 0.654775 80.8086 63.9722)" fill="white"/>
<rect width="3" height="3" transform="matrix(0.654887 0.755727 -0.755824 0.654775 129.877 111.433)" fill="white"/>
<rect width="3" height="3" transform="matrix(0.654887 0.755727 -0.755824 0.654775 129.574 115.664)" fill="white"/>
<rect width="3" height="3" transform="matrix(0.654887 0.755727 -0.755824 0.654775 129.271 119.896)" fill="white"/>
<rect width="3" height="3" transform="matrix(0.654887 0.755727 -0.755824 0.654775 147.216 47.458)" fill="white"/>
<rect width="3" height="3" transform="matrix(0.654887 0.755727 -0.755824 0.654775 146.913 51.689)" fill="white"/>
<rect width="3" height="3" transform="matrix(0.654887 0.755727 -0.755824 0.654775 146.61 55.9214)" fill="white"/>
<rect width="3" height="3" transform="matrix(0.654887 0.755727 -0.755824 0.654775 195.023 102.626)" fill="white"/>
<rect width="3" height="3" transform="matrix(0.654887 0.755727 -0.755824 0.654775 194.72 106.857)" fill="white"/>
<rect width="3" height="3" transform="matrix(0.654887 0.755727 -0.755824 0.654775 194.417 111.089)" fill="white"/>
<rect width="3" height="3" transform="matrix(0.654887 0.755727 -0.755824 0.654775 105.646 83.4707)" fill="white"/>
<rect width="3" height="3" transform="matrix(0.654887 0.755727 -0.755824 0.654775 105.343 87.7017)" fill="white"/>
<rect width="3" height="3" transform="matrix(0.654887 0.755727 -0.755824 0.654775 105.04 91.9341)" fill="white"/>
<rect width="3" height="3" transform="matrix(0.654887 0.755727 -0.755824 0.654775 153.453 138.639)" fill="white"/>
<rect width="3" height="3" transform="matrix(0.654887 0.755727 -0.755824 0.654775 153.149 142.87)" fill="white"/>
<rect width="3" height="3" transform="matrix(0.654887 0.755727 -0.755824 0.654775 152.846 147.102)" fill="white"/>
<rect width="3" height="3" transform="matrix(0.654887 0.755727 -0.755824 0.654775 126.053 65.7915)" fill="white"/>
<rect width="3" height="3" transform="matrix(0.654887 0.755727 -0.755824 0.654775 125.75 70.0225)" fill="white"/>
<rect width="3" height="3" transform="matrix(0.654887 0.755727 -0.755824 0.654775 125.447 74.2549)" fill="white"/>
<rect width="3" height="3" transform="matrix(0.654887 0.755727 -0.755824 0.654775 173.86 120.96)" fill="white"/>
<rect width="3" height="3" transform="matrix(0.654887 0.755727 -0.755824 0.654775 173.557 125.191)" fill="white"/>
<rect width="3" height="3" transform="matrix(0.654887 0.755727 -0.755824 0.654775 173.253 129.423)" fill="white"/>
<rect width="3" height="3" transform="matrix(0.654887 0.755727 -0.755824 0.654775 84.4829 101.804)" fill="white"/>
<rect width="3" height="3" transform="matrix(0.654887 0.755727 -0.755824 0.654775 84.1797 106.035)" fill="white"/>
<rect width="3" height="3" transform="matrix(0.654887 0.755727 -0.755824 0.654775 83.8765 110.268)" fill="white"/>
<rect width="3" height="3" transform="matrix(0.654887 0.755727 -0.755824 0.654775 132.29 156.972)" fill="white"/>
<rect width="3" height="3" transform="matrix(0.654887 0.755727 -0.755824 0.654775 131.986 161.203)" fill="white"/>
<rect width="3" height="3" transform="matrix(0.654887 0.755727 -0.755824 0.654775 131.683 165.436)" fill="white"/>
<rect width="3" height="3" transform="matrix(0.654887 0.755727 -0.755824 0.654775 57.2734 125.376)" fill="white"/>
<rect width="3" height="3" transform="matrix(0.654887 0.755727 -0.755824 0.654775 56.9702 129.607)" fill="white"/>
<rect width="3" height="3" transform="matrix(0.654887 0.755727 -0.755824 0.654775 56.667 133.839)" fill="white"/>
<rect width="3" height="3" transform="matrix(0.654887 0.755727 -0.755824 0.654775 49.7153 131.924)" fill="white"/>
<rect width="3" height="3" transform="matrix(0.654887 0.755727 -0.755824 0.654775 49.4121 136.155)" fill="white"/>
<rect width="3" height="3" transform="matrix(0.654887 0.755727 -0.755824 0.654775 49.1089 140.387)" fill="white"/>
<rect width="3" height="3" transform="matrix(0.654887 0.755727 -0.755824 0.654775 42.9126 137.817)" fill="white"/>
<rect width="3" height="3" transform="matrix(0.654887 0.755727 -0.755824 0.654775 42.6094 142.048)" fill="white"/>
<rect width="3" height="3" transform="matrix(0.654887 0.755727 -0.755824 0.654775 42.3062 146.28)" fill="white"/>
<rect width="3" height="3" transform="matrix(0.654887 0.755727 -0.755824 0.654775 105.08 180.544)" fill="white"/>
<rect width="3" height="3" transform="matrix(0.654887 0.755727 -0.755824 0.654775 104.777 184.775)" fill="white"/>
<rect width="3" height="3" transform="matrix(0.654887 0.755727 -0.755824 0.654775 104.474 189.008)" fill="white"/>
<rect width="3" height="3" transform="matrix(0.654887 0.755727 -0.755824 0.654775 97.522 187.092)" fill="white"/>
<rect width="3" height="3" transform="matrix(0.654887 0.755727 -0.755824 0.654775 97.2188 191.323)" fill="white"/>
<rect width="3" height="3" transform="matrix(0.654887 0.755727 -0.755824 0.654775 96.9155 195.555)" fill="white"/>
<rect width="3" height="3" transform="matrix(0.654887 0.755727 -0.755824 0.654775 90.7192 192.985)" fill="white"/>
<rect width="3" height="3" transform="matrix(0.654887 0.755727 -0.755824 0.654775 90.416 197.216)" fill="white"/>
<rect width="3" height="3" transform="matrix(0.654887 0.755727 -0.755824 0.654775 90.1128 201.448)" fill="white"/>
<rect width="3" height="3" transform="matrix(0.654887 0.755727 -0.755824 0.654775 101.822 37.8296)" fill="white"/>
<rect width="3" height="3" transform="matrix(0.654887 0.755727 -0.755824 0.654775 101.519 42.0605)" fill="white"/>
<rect width="3" height="3" transform="matrix(0.654887 0.755727 -0.755824 0.654775 101.216 46.293)" fill="white"/>
<rect width="3" height="3" transform="matrix(0.654887 0.755727 -0.755824 0.654775 150.284 93.7534)" fill="white"/>
<rect width="3" height="3" transform="matrix(0.654887 0.755727 -0.755824 0.654775 149.981 97.9844)" fill="white"/>
<rect width="3" height="3" transform="matrix(0.654887 0.755727 -0.755824 0.654775 149.678 102.217)" fill="white"/>
<rect width="3" height="3" transform="matrix(0.654887 0.755727 -0.755824 0.654775 60.252 73.8423)" fill="white"/>
<rect width="3" height="3" transform="matrix(0.654887 0.755727 -0.755824 0.654775 59.9487 78.0732)" fill="white"/>
<rect width="3" height="3" transform="matrix(0.654887 0.755727 -0.755824 0.654775 59.6455 82.3057)" fill="white"/>
<rect width="3" height="3" transform="matrix(0.654887 0.755727 -0.755824 0.654775 108.714 129.766)" fill="white"/>
<rect width="3" height="3" transform="matrix(0.654887 0.755727 -0.755824 0.654775 108.411 133.997)" fill="white"/>
<rect width="3" height="3" transform="matrix(0.654887 0.755727 -0.755824 0.654775 108.107 138.229)" fill="white"/>
<rect width="3" height="3" transform="matrix(0.654887 0.755727 -0.755824 0.654775 33.0425 97.4141)" fill="white"/>
<rect width="3" height="3" transform="matrix(0.654887 0.755727 -0.755824 0.654775 32.7393 101.645)" fill="white"/>
<rect width="3" height="3" transform="matrix(0.654887 0.755727 -0.755824 0.654775 32.436 105.877)" fill="white"/>
<rect width="3" height="3" transform="matrix(0.654887 0.755727 -0.755824 0.654775 25.4844 103.962)" fill="white"/>
<rect width="3" height="3" transform="matrix(0.654887 0.755727 -0.755824 0.654775 25.1812 108.193)" fill="white"/>
<rect width="3" height="3" transform="matrix(0.654887 0.755727 -0.755824 0.654775 24.8779 112.425)" fill="white"/>
<rect width="3" height="3" transform="matrix(0.654887 0.755727 -0.755824 0.654775 18.6816 109.855)" fill="white"/>
<rect width="3" height="3" transform="matrix(0.654887 0.755727 -0.755824 0.654775 18.3784 114.086)" fill="white"/>
<rect width="3" height="3" transform="matrix(0.654887 0.755727 -0.755824 0.654775 18.0752 118.318)" fill="white"/>
<rect width="3" height="3" transform="matrix(0.654887 0.755727 -0.755824 0.654775 81.5039 153.338)" fill="white"/>
<rect width="3" height="3" transform="matrix(0.654887 0.755727 -0.755824 0.654775 81.2007 157.569)" fill="white"/>
<rect width="3" height="3" transform="matrix(0.654887 0.755727 -0.755824 0.654775 80.8975 161.801)" fill="white"/>
<rect width="3" height="3" transform="matrix(0.654887 0.755727 -0.755824 0.654775 73.9458 159.886)" fill="white"/>
<rect width="3" height="3" transform="matrix(0.654887 0.755727 -0.755824 0.654775 73.6426 164.117)" fill="white"/>
<rect width="3" height="3" transform="matrix(0.654887 0.755727 -0.755824 0.654775 73.3394 168.349)" fill="white"/>
<rect width="3" height="3" transform="matrix(0.654887 0.755727 -0.755824 0.654775 67.1436 165.779)" fill="white"/>
<rect width="3" height="3" transform="matrix(0.654887 0.755727 -0.755824 0.654775 66.8403 170.01)" fill="white"/>
<rect width="3" height="3" transform="matrix(0.654887 0.755727 -0.755824 0.654775 66.5371 174.242)" fill="white"/>
<rect width="3" height="3" transform="matrix(0.654887 0.755727 -0.755824 0.654775 129.788 13.603)" fill="white"/>
<rect width="3" height="3" transform="matrix(0.654887 0.755727 -0.755824 0.654775 129.485 17.834)" fill="white"/>
<rect width="3" height="3" transform="matrix(0.654887 0.755727 -0.755824 0.654775 129.182 22.0664)" fill="white"/>
<rect width="3" height="3" transform="matrix(0.654887 0.755727 -0.755824 0.654775 178.25 69.5269)" fill="white"/>
<rect width="3" height="3" transform="matrix(0.654887 0.755727 -0.755824 0.654775 177.946 73.7578)" fill="white"/>
<rect width="3" height="3" transform="matrix(0.654887 0.755727 -0.755824 0.654775 177.643 77.9902)" fill="white"/>
<rect width="3" height="3" transform="matrix(0.654887 0.755727 -0.755824 0.654775 88.2178 49.6157)" fill="white"/>
<rect width="3" height="3" transform="matrix(0.654887 0.755727 -0.755824 0.654775 87.9146 53.8467)" fill="white"/>
<rect width="3" height="3" transform="matrix(0.654887 0.755727 -0.755824 0.654775 87.6113 58.0791)" fill="white"/>
<rect width="3" height="3" transform="matrix(0.654887 0.755727 -0.755824 0.654775 136.679 105.54)" fill="white"/>
<rect width="3" height="3" transform="matrix(0.654887 0.755727 -0.755824 0.654775 136.376 109.771)" fill="white"/>
<rect width="3" height="3" transform="matrix(0.654887 0.755727 -0.755824 0.654775 136.073 114.003)" fill="white"/>
<rect width="3" height="3" transform="matrix(0.654887 0.755727 -0.755824 0.654775 154.019 41.5649)" fill="white"/>
<rect width="3" height="3" transform="matrix(0.654887 0.755727 -0.755824 0.654775 153.715 45.7959)" fill="white"/>
<rect width="3" height="3" transform="matrix(0.654887 0.755727 -0.755824 0.654775 153.412 50.0283)" fill="white"/>
<rect width="3" height="3" transform="matrix(0.654887 0.755727 -0.755824 0.654775 201.826 96.7329)" fill="white"/>
<rect width="3" height="3" transform="matrix(0.654887 0.755727 -0.755824 0.654775 201.522 100.964)" fill="white"/>
<rect width="3" height="3" transform="matrix(0.654887 0.755727 -0.755824 0.654775 201.219 105.196)" fill="white"/>
<rect width="3" height="3" transform="matrix(0.654887 0.755727 -0.755824 0.654775 112.448 77.5776)" fill="white"/>
<rect width="3" height="3" transform="matrix(0.654887 0.755727 -0.755824 0.654775 112.145 81.8086)" fill="white"/>
<rect width="3" height="3" transform="matrix(0.654887 0.755727 -0.755824 0.654775 111.842 86.041)" fill="white"/>
<rect width="3" height="3" transform="matrix(0.654887 0.755727 -0.755824 0.654775 160.255 132.746)" fill="white"/>
<rect width="3" height="3" transform="matrix(0.654887 0.755727 -0.755824 0.654775 159.952 136.977)" fill="white"/>
<rect width="3" height="3" transform="matrix(0.654887 0.755727 -0.755824 0.654775 159.649 141.209)" fill="white"/>
<rect width="3" height="3" transform="matrix(0.654887 0.755727 -0.755824 0.654775 132.855 59.8989)" fill="white"/>
<rect width="3" height="3" transform="matrix(0.654887 0.755727 -0.755824 0.654775 132.552 64.1299)" fill="white"/>
<rect width="3" height="3" transform="matrix(0.654887 0.755727 -0.755824 0.654775 132.249 68.3623)" fill="white"/>
<rect width="3" height="3" transform="matrix(0.654887 0.755727 -0.755824 0.654775 180.663 115.067)" fill="white"/>
<rect width="3" height="3" transform="matrix(0.654887 0.755727 -0.755824 0.654775 180.359 119.298)" fill="white"/>
<rect width="3" height="3" transform="matrix(0.654887 0.755727 -0.755824 0.654775 180.056 123.53)" fill="white"/>
<rect width="3" height="3" transform="matrix(0.654887 0.755727 -0.755824 0.654775 91.2852 95.9111)" fill="white"/>
<rect width="3" height="3" transform="matrix(0.654887 0.755727 -0.755824 0.654775 90.9819 100.142)" fill="white"/>
<rect width="3" height="3" transform="matrix(0.654887 0.755727 -0.755824 0.654775 90.6787 104.375)" fill="white"/>
<rect width="3" height="3" transform="matrix(0.654887 0.755727 -0.755824 0.654775 139.092 151.08)" fill="white"/>
<rect width="3" height="3" transform="matrix(0.654887 0.755727 -0.755824 0.654775 138.789 155.311)" fill="white"/>
<rect width="3" height="3" transform="matrix(0.654887 0.755727 -0.755824 0.654775 138.486 159.543)" fill="white"/>
<rect width="3" height="3" transform="matrix(0.654887 0.755727 -0.755824 0.654775 64.0757 119.483)" fill="white"/>
<rect width="3" height="3" transform="matrix(0.654887 0.755727 -0.755824 0.654775 63.7725 123.714)" fill="white"/>
<rect width="3" height="3" transform="matrix(0.654887 0.755727 -0.755824 0.654775 63.4692 127.947)" fill="white"/>
<rect width="3" height="3" transform="matrix(0.654887 0.755727 -0.755824 0.654775 111.882 174.651)" fill="white"/>
<rect width="3" height="3" transform="matrix(0.654887 0.755727 -0.755824 0.654775 111.579 178.882)" fill="white"/>
<rect width="3" height="3" transform="matrix(0.654887 0.755727 -0.755824 0.654775 111.276 183.115)" fill="white"/>
<rect width="3" height="3" transform="matrix(0.654887 0.755727 -0.755824 0.654775 108.625 31.937)" fill="white"/>
<rect width="3" height="3" transform="matrix(0.654887 0.755727 -0.755824 0.654775 108.322 36.168)" fill="white"/>
<rect width="3" height="3" transform="matrix(0.654887 0.755727 -0.755824 0.654775 108.019 40.4004)" fill="white"/>
<rect width="3" height="3" transform="matrix(0.654887 0.755727 -0.755824 0.654775 157.086 87.8604)" fill="white"/>
<rect width="3" height="3" transform="matrix(0.654887 0.755727 -0.755824 0.654775 156.783 92.0913)" fill="white"/>
<rect width="3" height="3" transform="matrix(0.654887 0.755727 -0.755824 0.654775 156.48 96.3237)" fill="white"/>
<rect width="3" height="3" transform="matrix(0.654887 0.755727 -0.755824 0.654775 67.0547 67.9492)" fill="white"/>
<rect width="3" height="3" transform="matrix(0.654887 0.755727 -0.755824 0.654775 66.7515 72.1802)" fill="white"/>
<rect width="3" height="3" transform="matrix(0.654887 0.755727 -0.755824 0.654775 66.4482 76.4126)" fill="white"/>
<rect width="3" height="3" transform="matrix(0.654887 0.755727 -0.755824 0.654775 115.516 123.873)" fill="white"/>
<rect width="3" height="3" transform="matrix(0.654887 0.755727 -0.755824 0.654775 115.213 128.104)" fill="white"/>
<rect width="3" height="3" transform="matrix(0.654887 0.755727 -0.755824 0.654775 114.91 132.336)" fill="white"/>
<rect width="3" height="3" transform="matrix(0.654887 0.755727 -0.755824 0.654775 39.8447 91.5215)" fill="white"/>
<rect width="3" height="3" transform="matrix(0.654887 0.755727 -0.755824 0.654775 39.5415 95.7524)" fill="white"/>
<rect width="3" height="3" transform="matrix(0.654887 0.755727 -0.755824 0.654775 39.2383 99.9849)" fill="white"/>
<rect width="3" height="3" transform="matrix(0.654887 0.755727 -0.755824 0.654775 88.3066 147.445)" fill="white"/>
<rect width="3" height="3" transform="matrix(0.654887 0.755727 -0.755824 0.654775 88.0034 151.676)" fill="white"/>
<rect width="3" height="3" transform="matrix(0.654887 0.755727 -0.755824 0.654775 87.7002 155.909)" fill="white"/>
<rect width="3" height="3" transform="matrix(0.654887 0.755727 -0.755824 0.654775 123.894 6.80176)" fill="white"/>
<rect width="3" height="3" transform="matrix(0.654887 0.755727 -0.755824 0.654775 123.591 11.0327)" fill="white"/>
<rect width="3" height="3" transform="matrix(0.654887 0.755727 -0.755824 0.654775 123.288 15.2651)" fill="white"/>
<rect width="3" height="3" transform="matrix(0.654887 0.755727 -0.755824 0.654775 172.355 62.7256)" fill="white"/>
<rect width="3" height="3" transform="matrix(0.654887 0.755727 -0.755824 0.654775 172.052 66.9565)" fill="white"/>
<rect width="3" height="3" transform="matrix(0.654887 0.755727 -0.755824 0.654775 171.749 71.189)" fill="white"/>
<rect width="3" height="3" transform="matrix(0.654887 0.755727 -0.755824 0.654775 82.3237 42.814)" fill="white"/>
<rect width="3" height="3" transform="matrix(0.654887 0.755727 -0.755824 0.654775 82.0205 47.0449)" fill="white"/>
<rect width="3" height="3" transform="matrix(0.654887 0.755727 -0.755824 0.654775 81.7173 51.2773)" fill="white"/>
<rect width="3" height="3" transform="matrix(0.654887 0.755727 -0.755824 0.654775 130.785 98.7378)" fill="white"/>
<rect width="3" height="3" transform="matrix(0.654887 0.755727 -0.755824 0.654775 130.482 102.969)" fill="white"/>
<rect width="3" height="3" transform="matrix(0.654887 0.755727 -0.755824 0.654775 130.179 107.201)" fill="white"/>
<rect width="3" height="3" transform="matrix(0.654887 0.755727 -0.755824 0.654775 148.125 34.7637)" fill="white"/>
<rect width="3" height="3" transform="matrix(0.654887 0.755727 -0.755824 0.654775 147.822 38.9946)" fill="white"/>
<rect width="3" height="3" transform="matrix(0.654887 0.755727 -0.755824 0.654775 147.519 43.2271)" fill="white"/>
<rect width="3" height="3" transform="matrix(0.654887 0.755727 -0.755824 0.654775 195.932 89.9316)" fill="white"/>
<rect width="3" height="3" transform="matrix(0.654887 0.755727 -0.755824 0.654775 195.628 94.1626)" fill="white"/>
<rect width="3" height="3" transform="matrix(0.654887 0.755727 -0.755824 0.654775 195.325 98.395)" fill="white"/>
<rect width="3" height="3" transform="matrix(0.654887 0.755727 -0.755824 0.654775 106.555 70.7759)" fill="white"/>
<rect width="3" height="3" transform="matrix(0.654887 0.755727 -0.755824 0.654775 106.251 75.0068)" fill="white"/>
<rect width="3" height="3" transform="matrix(0.654887 0.755727 -0.755824 0.654775 105.948 79.2393)" fill="white"/>
<rect width="3" height="3" transform="matrix(0.654887 0.755727 -0.755824 0.654775 154.361 125.944)" fill="white"/>
<rect width="3" height="3" transform="matrix(0.654887 0.755727 -0.755824 0.654775 154.058 130.175)" fill="white"/>
<rect width="3" height="3" transform="matrix(0.654887 0.755727 -0.755824 0.654775 153.755 134.408)" fill="white"/>
<rect width="3" height="3" transform="matrix(0.654887 0.755727 -0.755824 0.654775 126.962 53.0972)" fill="white"/>
<rect width="3" height="3" transform="matrix(0.654887 0.755727 -0.755824 0.654775 126.659 57.3281)" fill="white"/>
<rect width="3" height="3" transform="matrix(0.654887 0.755727 -0.755824 0.654775 126.355 61.5605)" fill="white"/>
<rect width="3" height="3" transform="matrix(0.654887 0.755727 -0.755824 0.654775 174.769 108.265)" fill="white"/>
<rect width="3" height="3" transform="matrix(0.654887 0.755727 -0.755824 0.654775 174.465 112.496)" fill="white"/>
<rect width="3" height="3" transform="matrix(0.654887 0.755727 -0.755824 0.654775 174.162 116.729)" fill="white"/>
<rect width="3" height="3" transform="matrix(0.654887 0.755727 -0.755824 0.654775 85.3916 89.1099)" fill="white"/>
<rect width="3" height="3" transform="matrix(0.654887 0.755727 -0.755824 0.654775 85.0884 93.3408)" fill="white"/>
<rect width="3" height="3" transform="matrix(0.654887 0.755727 -0.755824 0.654775 84.7852 97.5732)" fill="white"/>
<rect width="3" height="3" transform="matrix(0.654887 0.755727 -0.755824 0.654775 133.198 144.278)" fill="white"/>
<rect width="3" height="3" transform="matrix(0.654887 0.755727 -0.755824 0.654775 132.895 148.509)" fill="white"/>
<rect width="3" height="3" transform="matrix(0.654887 0.755727 -0.755824 0.654775 132.592 152.741)" fill="white"/>
<rect width="3" height="3" transform="matrix(0.654887 0.755727 -0.755824 0.654775 58.1816 112.682)" fill="white"/>
<rect width="3" height="3" transform="matrix(0.654887 0.755727 -0.755824 0.654775 57.8784 116.913)" fill="white"/>
<rect width="3" height="3" transform="matrix(0.654887 0.755727 -0.755824 0.654775 57.5752 121.145)" fill="white"/>
<rect width="3" height="3" transform="matrix(0.654887 0.755727 -0.755824 0.654775 105.988 167.85)" fill="white"/>
<rect width="3" height="3" transform="matrix(0.654887 0.755727 -0.755824 0.654775 105.685 172.081)" fill="white"/>
<rect width="3" height="3" transform="matrix(0.654887 0.755727 -0.755824 0.654775 105.382 176.313)" fill="white"/>
<rect width="3" height="3" transform="matrix(0.654887 0.755727 -0.755824 0.654775 102.731 25.1353)" fill="white"/>
<rect width="3" height="3" transform="matrix(0.654887 0.755727 -0.755824 0.654775 102.428 29.3662)" fill="white"/>
<rect width="3" height="3" transform="matrix(0.654887 0.755727 -0.755824 0.654775 102.125 33.5986)" fill="white"/>
<rect width="3" height="3" transform="matrix(0.654887 0.755727 -0.755824 0.654775 151.192 81.0591)" fill="white"/>
<rect width="3" height="3" transform="matrix(0.654887 0.755727 -0.755824 0.654775 150.889 85.29)" fill="white"/>
<rect width="3" height="3" transform="matrix(0.654887 0.755727 -0.755824 0.654775 150.586 89.5225)" fill="white"/>
<rect width="3" height="3" transform="matrix(0.654887 0.755727 -0.755824 0.654775 61.1606 61.1479)" fill="white"/>
<rect width="3" height="3" transform="matrix(0.654887 0.755727 -0.755824 0.654775 60.8574 65.3789)" fill="white"/>
<rect width="3" height="3" transform="matrix(0.654887 0.755727 -0.755824 0.654775 60.5542 69.6113)" fill="white"/>
<rect width="3" height="3" transform="matrix(0.654887 0.755727 -0.755824 0.654775 109.622 117.072)" fill="white"/>
<rect width="3" height="3" transform="matrix(0.654887 0.755727 -0.755824 0.654775 109.319 121.303)" fill="white"/>
<rect width="3" height="3" transform="matrix(0.654887 0.755727 -0.755824 0.654775 109.016 125.535)" fill="white"/>
<rect width="3" height="3" transform="matrix(0.654887 0.755727 -0.755824 0.654775 33.9512 84.7197)" fill="white"/>
<rect width="3" height="3" transform="matrix(0.654887 0.755727 -0.755824 0.654775 33.6479 88.9507)" fill="white"/>
<rect width="3" height="3" transform="matrix(0.654887 0.755727 -0.755824 0.654775 33.3447 93.1831)" fill="white"/>
<rect width="3" height="3" transform="matrix(0.654887 0.755727 -0.755824 0.654775 82.4126 140.644)" fill="white"/>
<rect width="3" height="3" transform="matrix(0.654887 0.755727 -0.755824 0.654775 82.1094 144.875)" fill="white"/>
<rect width="3" height="3" transform="matrix(0.654887 0.755727 -0.755824 0.654775 81.8062 149.107)" fill="white"/>
<rect width="3" height="3" transform="matrix(0.654887 0.755727 -0.755824 0.654775 117.092 12.6943)" fill="white"/>
<rect width="3" height="3" transform="matrix(0.654887 0.755727 -0.755824 0.654775 116.789 16.9253)" fill="white"/>
<rect width="3" height="3" transform="matrix(0.654887 0.755727 -0.755824 0.654775 116.485 21.1577)" fill="white"/>
<rect width="3" height="3" transform="matrix(0.654887 0.755727 -0.755824 0.654775 165.553 68.6182)" fill="white"/>
<rect width="3" height="3" transform="matrix(0.654887 0.755727 -0.755824 0.654775 165.25 72.8491)" fill="white"/>
<rect width="3" height="3" transform="matrix(0.654887 0.755727 -0.755824 0.654775 164.947 77.0815)" fill="white"/>
<rect width="3" height="3" transform="matrix(0.654887 0.755727 -0.755824 0.654775 75.5215 48.707)" fill="white"/>
<rect width="3" height="3" transform="matrix(0.654887 0.755727 -0.755824 0.654775 75.2183 52.938)" fill="white"/>
<rect width="3" height="3" transform="matrix(0.654887 0.755727 -0.755824 0.654775 74.915 57.1704)" fill="white"/>
<rect width="3" height="3" transform="matrix(0.654887 0.755727 -0.755824 0.654775 123.983 104.631)" fill="white"/>
<rect width="3" height="3" transform="matrix(0.654887 0.755727 -0.755824 0.654775 123.68 108.862)" fill="white"/>
<rect width="3" height="3" transform="matrix(0.654887 0.755727 -0.755824 0.654775 123.376 113.094)" fill="white"/>
<rect width="3" height="3" transform="matrix(0.654887 0.755727 -0.755824 0.654775 141.322 40.6562)" fill="white"/>
<rect width="3" height="3" transform="matrix(0.654887 0.755727 -0.755824 0.654775 141.019 44.8872)" fill="white"/>
<rect width="3" height="3" transform="matrix(0.654887 0.755727 -0.755824 0.654775 140.716 49.1196)" fill="white"/>
<rect width="3" height="3" transform="matrix(0.654887 0.755727 -0.755824 0.654775 189.129 95.8247)" fill="white"/>
<rect width="3" height="3" transform="matrix(0.654887 0.755727 -0.755824 0.654775 188.826 100.056)" fill="white"/>
<rect width="3" height="3" transform="matrix(0.654887 0.755727 -0.755824 0.654775 188.522 104.288)" fill="white"/>
<rect width="3" height="3" transform="matrix(0.654887 0.755727 -0.755824 0.654775 99.752 76.6689)" fill="white"/>
<rect width="3" height="3" transform="matrix(0.654887 0.755727 -0.755824 0.654775 99.4487 80.8999)" fill="white"/>
<rect width="3" height="3" transform="matrix(0.654887 0.755727 -0.755824 0.654775 99.1455 85.1323)" fill="white"/>
<rect width="3" height="3" transform="matrix(0.654887 0.755727 -0.755824 0.654775 147.559 131.837)" fill="white"/>
<rect width="3" height="3" transform="matrix(0.654887 0.755727 -0.755824 0.654775 147.255 136.068)" fill="white"/>
<rect width="3" height="3" transform="matrix(0.654887 0.755727 -0.755824 0.654775 146.952 140.3)" fill="white"/>
<rect width="3" height="3" transform="matrix(0.654887 0.755727 -0.755824 0.654775 120.159 58.9902)" fill="white"/>
<rect width="3" height="3" transform="matrix(0.654887 0.755727 -0.755824 0.654775 119.856 63.2212)" fill="white"/>
<rect width="3" height="3" transform="matrix(0.654887 0.755727 -0.755824 0.654775 119.553 67.4536)" fill="white"/>
<rect width="3" height="3" transform="matrix(0.654887 0.755727 -0.755824 0.654775 167.966 114.158)" fill="white"/>
<rect width="3" height="3" transform="matrix(0.654887 0.755727 -0.755824 0.654775 167.663 118.389)" fill="white"/>
<rect width="3" height="3" transform="matrix(0.654887 0.755727 -0.755824 0.654775 167.359 122.622)" fill="white"/>
<rect width="3" height="3" transform="matrix(0.654887 0.755727 -0.755824 0.654775 78.5889 95.0029)" fill="white"/>
<rect width="3" height="3" transform="matrix(0.654887 0.755727 -0.755824 0.654775 78.2856 99.2339)" fill="white"/>
<rect width="3" height="3" transform="matrix(0.654887 0.755727 -0.755824 0.654775 77.9824 103.466)" fill="white"/>
<rect width="3" height="3" transform="matrix(0.654887 0.755727 -0.755824 0.654775 126.396 150.171)" fill="white"/>
<rect width="3" height="3" transform="matrix(0.654887 0.755727 -0.755824 0.654775 126.092 154.402)" fill="white"/>
<rect width="3" height="3" transform="matrix(0.654887 0.755727 -0.755824 0.654775 125.789 158.634)" fill="white"/>
<rect width="3" height="3" transform="matrix(0.654887 0.755727 -0.755824 0.654775 51.3794 118.575)" fill="white"/>
<rect width="3" height="3" transform="matrix(0.654887 0.755727 -0.755824 0.654775 51.0762 122.806)" fill="white"/>
<rect width="3" height="3" transform="matrix(0.654887 0.755727 -0.755824 0.654775 50.7729 127.038)" fill="white"/>
<rect width="3" height="3" transform="matrix(0.654887 0.755727 -0.755824 0.654775 43.8213 125.123)" fill="white"/>
<rect width="3" height="3" transform="matrix(0.654887 0.755727 -0.755824 0.654775 43.5181 129.354)" fill="white"/>
<rect width="3" height="3" transform="matrix(0.654887 0.755727 -0.755824 0.654775 43.2148 133.586)" fill="white"/>
<rect width="3" height="3" transform="matrix(0.654887 0.755727 -0.755824 0.654775 37.0186 131.016)" fill="white"/>
<rect width="3" height="3" transform="matrix(0.654887 0.755727 -0.755824 0.654775 36.7153 135.247)" fill="white"/>
<rect width="3" height="3" transform="matrix(0.654887 0.755727 -0.755824 0.654775 36.4121 139.479)" fill="white"/>
<rect width="3" height="3" transform="matrix(0.654887 0.755727 -0.755824 0.654775 99.186 173.743)" fill="white"/>
<rect width="3" height="3" transform="matrix(0.654887 0.755727 -0.755824 0.654775 98.8828 177.974)" fill="white"/>
<rect width="3" height="3" transform="matrix(0.654887 0.755727 -0.755824 0.654775 98.5796 182.206)" fill="white"/>
<rect width="3" height="3" transform="matrix(0.654887 0.755727 -0.755824 0.654775 91.6279 180.291)" fill="white"/>
<rect width="3" height="3" transform="matrix(0.654887 0.755727 -0.755824 0.654775 91.3247 184.521)" fill="white"/>
<rect width="3" height="3" transform="matrix(0.654887 0.755727 -0.755824 0.654775 91.0215 188.754)" fill="white"/>
<rect width="3" height="3" transform="matrix(0.654887 0.755727 -0.755824 0.654775 84.8252 186.184)" fill="white"/>
<rect width="3" height="3" transform="matrix(0.654887 0.755727 -0.755824 0.654775 84.522 190.415)" fill="white"/>
<rect width="3" height="3" transform="matrix(0.654887 0.755727 -0.755824 0.654775 84.2188 194.647)" fill="white"/>
<rect width="3" height="3" transform="matrix(0.654887 0.755727 -0.755824 0.654775 95.9287 31.0283)" fill="white"/>
<rect width="3" height="3" transform="matrix(0.654887 0.755727 -0.755824 0.654775 95.6255 35.2593)" fill="white"/>
<rect width="3" height="3" transform="matrix(0.654887 0.755727 -0.755824 0.654775 95.3223 39.4917)" fill="white"/>
<rect width="3" height="3" transform="matrix(0.654887 0.755727 -0.755824 0.654775 144.39 86.9521)" fill="white"/>
<rect width="3" height="3" transform="matrix(0.654887 0.755727 -0.755824 0.654775 144.087 91.1831)" fill="white"/>
<rect width="3" height="3" transform="matrix(0.654887 0.755727 -0.755824 0.654775 143.784 95.4155)" fill="white"/>
<rect width="3" height="3" transform="matrix(0.654887 0.755727 -0.755824 0.654775 54.3584 67.041)" fill="white"/>
<rect width="3" height="3" transform="matrix(0.654887 0.755727 -0.755824 0.654775 54.0552 71.272)" fill="white"/>
<rect width="3" height="3" transform="matrix(0.654887 0.755727 -0.755824 0.654775 53.752 75.5044)" fill="white"/>
<rect width="3" height="3" transform="matrix(0.654887 0.755727 -0.755824 0.654775 102.82 122.965)" fill="white"/>
<rect width="3" height="3" transform="matrix(0.654887 0.755727 -0.755824 0.654775 102.517 127.196)" fill="white"/>
<rect width="3" height="3" transform="matrix(0.654887 0.755727 -0.755824 0.654775 102.213 131.428)" fill="white"/>
<rect width="3" height="3" transform="matrix(0.654887 0.755727 -0.755824 0.654775 27.1484 90.6128)" fill="white"/>
<rect width="3" height="3" transform="matrix(0.654887 0.755727 -0.755824 0.654775 26.8452 94.8438)" fill="white"/>
<rect width="3" height="3" transform="matrix(0.654887 0.755727 -0.755824 0.654775 26.542 99.0762)" fill="white"/>
<rect width="3" height="3" transform="matrix(0.654887 0.755727 -0.755824 0.654775 19.5903 97.1606)" fill="white"/>
<rect width="3" height="3" transform="matrix(0.654887 0.755727 -0.755824 0.654775 19.2871 101.392)" fill="white"/>
<rect width="3" height="3" transform="matrix(0.654887 0.755727 -0.755824 0.654775 18.9839 105.624)" fill="white"/>
<rect width="3" height="3" transform="matrix(0.654887 0.755727 -0.755824 0.654775 12.7881 103.054)" fill="white"/>
<rect width="3" height="3" transform="matrix(0.654887 0.755727 -0.755824 0.654775 12.4849 107.285)" fill="white"/>
<rect width="3" height="3" transform="matrix(0.654887 0.755727 -0.755824 0.654775 12.1816 111.517)" fill="white"/>
<rect width="3" height="3" transform="matrix(0.654887 0.755727 -0.755824 0.654775 75.6104 146.537)" fill="white"/>
<rect width="3" height="3" transform="matrix(0.654887 0.755727 -0.755824 0.654775 75.3071 150.768)" fill="white"/>
<rect width="3" height="3" transform="matrix(0.654887 0.755727 -0.755824 0.654775 75.0039 155)" fill="white"/>
<rect width="3" height="3" transform="matrix(0.654887 0.755727 -0.755824 0.654775 68.0518 153.084)" fill="white"/>
<rect width="3" height="3" transform="matrix(0.654887 0.755727 -0.755824 0.654775 67.7485 157.315)" fill="white"/>
<rect width="3" height="3" transform="matrix(0.654887 0.755727 -0.755824 0.654775 67.4453 161.548)" fill="white"/>
<rect width="3" height="3" transform="matrix(0.654887 0.755727 -0.755824 0.654775 61.2495 158.977)" fill="white"/>
<rect width="3" height="3" transform="matrix(0.654887 0.755727 -0.755824 0.654775 60.9463 163.208)" fill="white"/>
<rect width="3" height="3" transform="matrix(0.654887 0.755727 -0.755824 0.654775 60.6431 167.44)" fill="white"/>
<rect width="3" height="3" transform="matrix(0.654887 0.755727 -0.755824 0.654775 110.289 18.5874)" fill="white"/>
<rect width="3" height="3" transform="matrix(0.654887 0.755727 -0.755824 0.654775 109.986 22.8184)" fill="white"/>
<rect width="3" height="3" transform="matrix(0.654887 0.755727 -0.755824 0.654775 109.683 27.0508)" fill="white"/>
<rect width="3" height="3" transform="matrix(0.654887 0.755727 -0.755824 0.654775 158.751 74.5112)" fill="white"/>
<rect width="3" height="3" transform="matrix(0.654887 0.755727 -0.755824 0.654775 158.448 78.7422)" fill="white"/>
<rect width="3" height="3" transform="matrix(0.654887 0.755727 -0.755824 0.654775 158.145 82.9746)" fill="white"/>
<rect width="3" height="3" transform="matrix(0.654887 0.755727 -0.755824 0.654775 68.7188 54.6001)" fill="white"/>
<rect width="3" height="3" transform="matrix(0.654887 0.755727 -0.755824 0.654775 68.4155 58.8311)" fill="white"/>
<rect width="3" height="3" transform="matrix(0.654887 0.755727 -0.755824 0.654775 68.1123 63.0635)" fill="white"/>
<rect width="3" height="3" transform="matrix(0.654887 0.755727 -0.755824 0.654775 117.181 110.524)" fill="white"/>
<rect width="3" height="3" transform="matrix(0.654887 0.755727 -0.755824 0.654775 116.877 114.755)" fill="white"/>
<rect width="3" height="3" transform="matrix(0.654887 0.755727 -0.755824 0.654775 116.574 118.987)" fill="white"/>
<rect width="3" height="3" transform="matrix(0.654887 0.755727 -0.755824 0.654775 40.7534 78.8267)" fill="white"/>
<rect width="3" height="3" transform="matrix(0.654887 0.755727 -0.755824 0.654775 40.4502 83.0576)" fill="white"/>
<rect width="3" height="3" transform="matrix(0.654887 0.755727 -0.755824 0.654775 40.147 87.29)" fill="white"/>
<rect width="3" height="3" transform="matrix(0.654887 0.755727 -0.755824 0.654775 89.2148 134.75)" fill="white"/>
<rect width="3" height="3" transform="matrix(0.654887 0.755727 -0.755824 0.654775 88.9116 138.981)" fill="white"/>
<rect width="3" height="3" transform="matrix(0.654887 0.755727 -0.755824 0.654775 88.6084 143.214)" fill="white"/>
<rect width="3" height="3" transform="matrix(0.654887 0.755727 -0.755824 0.654775 134.52 46.5493)" fill="white"/>
<rect width="3" height="3" transform="matrix(0.654887 0.755727 -0.755824 0.654775 134.217 50.7803)" fill="white"/>
<rect width="3" height="3" transform="matrix(0.654887 0.755727 -0.755824 0.654775 133.914 55.0127)" fill="white"/>
<rect width="3" height="3" transform="matrix(0.654887 0.755727 -0.755824 0.654775 182.327 101.717)" fill="white"/>
<rect width="3" height="3" transform="matrix(0.654887 0.755727 -0.755824 0.654775 182.023 105.948)" fill="white"/>
<rect width="3" height="3" transform="matrix(0.654887 0.755727 -0.755824 0.654775 181.72 110.181)" fill="white"/>
<rect width="3" height="3" transform="matrix(0.654887 0.755727 -0.755824 0.654775 92.9497 82.562)" fill="white"/>
<rect width="3" height="3" transform="matrix(0.654887 0.755727 -0.755824 0.654775 92.6465 86.793)" fill="white"/>
<rect width="3" height="3" transform="matrix(0.654887 0.755727 -0.755824 0.654775 92.3433 91.0254)" fill="white"/>
<rect width="3" height="3" transform="matrix(0.654887 0.755727 -0.755824 0.654775 140.756 137.73)" fill="white"/>
<rect width="3" height="3" transform="matrix(0.654887 0.755727 -0.755824 0.654775 140.453 141.961)" fill="white"/>
<rect width="3" height="3" transform="matrix(0.654887 0.755727 -0.755824 0.654775 140.15 146.193)" fill="white"/>
<rect width="3" height="3" transform="matrix(0.654887 0.755727 -0.755824 0.654775 64.9844 106.789)" fill="white"/>
<rect width="3" height="3" transform="matrix(0.654887 0.755727 -0.755824 0.654775 64.6812 111.02)" fill="white"/>
<rect width="3" height="3" transform="matrix(0.654887 0.755727 -0.755824 0.654775 64.3779 115.252)" fill="white"/>
<rect width="3" height="3" transform="matrix(0.654887 0.755727 -0.755824 0.654775 112.791 161.957)" fill="white"/>
<rect width="3" height="3" transform="matrix(0.654887 0.755727 -0.755824 0.654775 112.488 166.188)" fill="white"/>
<rect width="3" height="3" transform="matrix(0.654887 0.755727 -0.755824 0.654775 112.185 170.42)" fill="white"/>
<rect width="3" height="3" transform="matrix(0.654887 0.755727 -0.755824 0.654775 113.357 64.8833)" fill="white"/>
<rect width="3" height="3" transform="matrix(0.654887 0.755727 -0.755824 0.654775 113.054 69.1143)" fill="white"/>
<rect width="3" height="3" transform="matrix(0.654887 0.755727 -0.755824 0.654775 112.75 73.3467)" fill="white"/>
<rect width="3" height="3" transform="matrix(0.654887 0.755727 -0.755824 0.654775 161.164 120.051)" fill="white"/>
<rect width="3" height="3" transform="matrix(0.654887 0.755727 -0.755824 0.654775 160.86 124.282)" fill="white"/>
<rect width="3" height="3" transform="matrix(0.654887 0.755727 -0.755824 0.654775 160.557 128.515)" fill="white"/>
<rect width="3" height="3" transform="matrix(0.654887 0.755727 -0.755824 0.654775 71.7866 100.896)" fill="white"/>
<rect width="3" height="3" transform="matrix(0.654887 0.755727 -0.755824 0.654775 71.4834 105.126)" fill="white"/>
<rect width="3" height="3" transform="matrix(0.654887 0.755727 -0.755824 0.654775 71.1802 109.359)" fill="white"/>
<rect width="3" height="3" transform="matrix(0.654887 0.755727 -0.755824 0.654775 119.593 156.064)" fill="white"/>
<rect width="3" height="3" transform="matrix(0.654887 0.755727 -0.755824 0.654775 119.29 160.295)" fill="white"/>
<rect width="3" height="3" transform="matrix(0.654887 0.755727 -0.755824 0.654775 118.987 164.527)" fill="white"/>
<rect width="3" height="3" transform="matrix(0.654887 0.755727 -0.755824 0.654775 89.126 36.9214)" fill="white"/>
<rect width="3" height="3" transform="matrix(0.654887 0.755727 -0.755824 0.654775 88.8228 41.1523)" fill="white"/>
<rect width="3" height="3" transform="matrix(0.654887 0.755727 -0.755824 0.654775 88.5195 45.3848)" fill="white"/>
<rect width="3" height="3" transform="matrix(0.654887 0.755727 -0.755824 0.654775 137.588 92.8452)" fill="white"/>
<rect width="3" height="3" transform="matrix(0.654887 0.755727 -0.755824 0.654775 137.285 97.0762)" fill="white"/>
<rect width="3" height="3" transform="matrix(0.654887 0.755727 -0.755824 0.654775 136.981 101.309)" fill="white"/>
<rect width="3" height="3" transform="matrix(0.654887 0.755727 -0.755824 0.654775 47.5557 72.9336)" fill="white"/>
<rect width="3" height="3" transform="matrix(0.654887 0.755727 -0.755824 0.654775 47.2524 77.1646)" fill="white"/>
<rect width="3" height="3" transform="matrix(0.654887 0.755727 -0.755824 0.654775 46.9492 81.397)" fill="white"/>
<rect width="3" height="3" transform="matrix(0.654887 0.755727 -0.755824 0.654775 96.0176 128.857)" fill="white"/>
<rect width="3" height="3" transform="matrix(0.654887 0.755727 -0.755824 0.654775 95.7144 133.088)" fill="white"/>
<rect width="3" height="3" transform="matrix(0.654887 0.755727 -0.755824 0.654775 95.4111 137.321)" fill="white"/>
<rect width="3" height="3" transform="matrix(0.654887 0.755727 -0.755824 0.654775 122.732 32.9463)" fill="white"/>
<rect width="3" height="3" transform="matrix(0.654887 0.755727 -0.755824 0.654775 122.429 37.1772)" fill="white"/>
<rect width="3" height="3" transform="matrix(0.654887 0.755727 -0.755824 0.654775 122.125 41.4097)" fill="white"/>
<rect width="3" height="3" transform="matrix(0.654887 0.755727 -0.755824 0.654775 170.539 88.1143)" fill="white"/>
<rect width="3" height="3" transform="matrix(0.654887 0.755727 -0.755824 0.654775 170.235 92.3452)" fill="white"/>
<rect width="3" height="3" transform="matrix(0.654887 0.755727 -0.755824 0.654775 169.932 96.5776)" fill="white"/>
<rect width="3" height="3" transform="matrix(0.654887 0.755727 -0.755824 0.654775 81.1616 68.959)" fill="white"/>
<rect width="3" height="3" transform="matrix(0.654887 0.755727 -0.755824 0.654775 80.8584 73.1899)" fill="white"/>
<rect width="3" height="3" transform="matrix(0.654887 0.755727 -0.755824 0.654775 80.5552 77.4224)" fill="white"/>
<rect width="3" height="3" transform="matrix(0.654887 0.755727 -0.755824 0.654775 128.968 124.127)" fill="white"/>
<rect width="3" height="3" transform="matrix(0.654887 0.755727 -0.755824 0.654775 128.665 128.358)" fill="white"/>
<rect width="3" height="3" transform="matrix(0.654887 0.755727 -0.755824 0.654775 128.362 132.59)" fill="white"/>
<rect width="3" height="3" transform="matrix(0.654887 0.755727 -0.755824 0.654775 53.1963 93.1855)" fill="white"/>
<rect width="3" height="3" transform="matrix(0.654887 0.755727 -0.755824 0.654775 52.8931 97.4165)" fill="white"/>
<rect width="3" height="3" transform="matrix(0.654887 0.755727 -0.755824 0.654775 52.5898 101.649)" fill="white"/>
<rect width="3" height="3" transform="matrix(0.654887 0.755727 -0.755824 0.654775 101.003 148.354)" fill="white"/>
<rect width="3" height="3" transform="matrix(0.654887 0.755727 -0.755824 0.654775 100.7 152.584)" fill="white"/>
<rect width="3" height="3" transform="matrix(0.654887 0.755727 -0.755824 0.654775 100.396 156.817)" fill="white"/>
<rect width="3" height="3" transform="matrix(0.654887 0.755727 -0.755824 0.654775 146.308 60.1523)" fill="white"/>
<rect width="3" height="3" transform="matrix(0.654887 0.755727 -0.755824 0.654775 146.005 64.3833)" fill="white"/>
<rect width="3" height="3" transform="matrix(0.654887 0.755727 -0.755824 0.654775 145.702 68.6157)" fill="white"/>
<rect width="3" height="3" transform="matrix(0.654887 0.755727 -0.755824 0.654775 194.77 116.076)" fill="white"/>
<rect width="3" height="3" transform="matrix(0.654887 0.755727 -0.755824 0.654775 194.466 120.307)" fill="white"/>
<rect width="3" height="3" transform="matrix(0.654887 0.755727 -0.755824 0.654775 194.163 124.54)" fill="white"/>
<rect width="3" height="3" transform="matrix(0.654887 0.755727 -0.755824 0.654775 104.738 96.165)" fill="white"/>
<rect width="3" height="3" transform="matrix(0.654887 0.755727 -0.755824 0.654775 104.435 100.396)" fill="white"/>
<rect width="3" height="3" transform="matrix(0.654887 0.755727 -0.755824 0.654775 104.131 104.628)" fill="white"/>
<rect width="3" height="3" transform="matrix(0.654887 0.755727 -0.755824 0.654775 153.199 152.089)" fill="white"/>
<rect width="3" height="3" transform="matrix(0.654887 0.755727 -0.755824 0.654775 152.896 156.32)" fill="white"/>
<rect width="3" height="3" transform="matrix(0.654887 0.755727 -0.755824 0.654775 152.593 160.552)" fill="white"/>
<rect width="3" height="3" transform="matrix(0.654887 0.755727 -0.755824 0.654775 76.772 120.392)" fill="white"/>
<rect width="3" height="3" transform="matrix(0.654887 0.755727 -0.755824 0.654775 76.4688 124.623)" fill="white"/>
<rect width="3" height="3" transform="matrix(0.654887 0.755727 -0.755824 0.654775 76.1655 128.855)" fill="white"/>
<rect width="3" height="3" transform="matrix(0.654887 0.755727 -0.755824 0.654775 125.234 176.315)" fill="white"/>
<rect width="3" height="3" transform="matrix(0.654887 0.755727 -0.755824 0.654775 124.931 180.546)" fill="white"/>
<rect width="3" height="3" transform="matrix(0.654887 0.755727 -0.755824 0.654775 124.627 184.779)" fill="white"/>
<rect width="3" height="3" transform="matrix(0.654887 0.755727 -0.755824 0.654775 125.145 78.4863)" fill="white"/>
<rect width="3" height="3" transform="matrix(0.654887 0.755727 -0.755824 0.654775 124.842 82.7173)" fill="white"/>
<rect width="3" height="3" transform="matrix(0.654887 0.755727 -0.755824 0.654775 124.539 86.9497)" fill="white"/>
<rect width="3" height="3" transform="matrix(0.654887 0.755727 -0.755824 0.654775 173.606 134.41)" fill="white"/>
<rect width="3" height="3" transform="matrix(0.654887 0.755727 -0.755824 0.654775 173.303 138.641)" fill="white"/>
<rect width="3" height="3" transform="matrix(0.654887 0.755727 -0.755824 0.654775 173 142.874)" fill="white"/>
<rect width="3" height="3" transform="matrix(0.654887 0.755727 -0.755824 0.654775 83.5747 114.499)" fill="white"/>
<rect width="3" height="3" transform="matrix(0.654887 0.755727 -0.755824 0.654775 83.2715 118.73)" fill="white"/>
<rect width="3" height="3" transform="matrix(0.654887 0.755727 -0.755824 0.654775 82.9683 122.962)" fill="white"/>
<rect width="3" height="3" transform="matrix(0.654887 0.755727 -0.755824 0.654775 132.036 170.423)" fill="white"/>
<rect width="3" height="3" transform="matrix(0.654887 0.755727 -0.755824 0.654775 131.733 174.654)" fill="white"/>
<rect width="3" height="3" transform="matrix(0.654887 0.755727 -0.755824 0.654775 131.43 178.886)" fill="white"/>
<rect width="3" height="3" transform="matrix(0.654887 0.755727 -0.755824 0.654775 101.569 51.2798)" fill="white"/>
<rect width="3" height="3" transform="matrix(0.654887 0.755727 -0.755824 0.654775 101.266 55.5107)" fill="white"/>
<rect width="3" height="3" transform="matrix(0.654887 0.755727 -0.755824 0.654775 100.962 59.7432)" fill="white"/>
<rect width="3" height="3" transform="matrix(0.654887 0.755727 -0.755824 0.654775 149.375 106.448)" fill="white"/>
<rect width="3" height="3" transform="matrix(0.654887 0.755727 -0.755824 0.654775 149.072 110.679)" fill="white"/>
<rect width="3" height="3" transform="matrix(0.654887 0.755727 -0.755824 0.654775 148.769 114.912)" fill="white"/>
<rect width="3" height="3" transform="matrix(0.654887 0.755727 -0.755824 0.654775 59.9985 87.2925)" fill="white"/>
<rect width="3" height="3" transform="matrix(0.654887 0.755727 -0.755824 0.654775 59.6953 91.5234)" fill="white"/>
<rect width="3" height="3" transform="matrix(0.654887 0.755727 -0.755824 0.654775 59.3921 95.7559)" fill="white"/>
<rect width="3" height="3" transform="matrix(0.654887 0.755727 -0.755824 0.654775 107.805 142.461)" fill="white"/>
<rect width="3" height="3" transform="matrix(0.654887 0.755727 -0.755824 0.654775 107.502 146.692)" fill="white"/>
<rect width="3" height="3" transform="matrix(0.654887 0.755727 -0.755824 0.654775 107.199 150.924)" fill="white"/>
<rect width="3" height="3" transform="matrix(0.654887 0.755727 -0.755824 0.654775 129.534 27.0532)" fill="white"/>
<rect width="3" height="3" transform="matrix(0.654887 0.755727 -0.755824 0.654775 129.231 31.2842)" fill="white"/>
<rect width="3" height="3" transform="matrix(0.654887 0.755727 -0.755824 0.654775 128.928 35.5166)" fill="white"/>
<rect width="3" height="3" transform="matrix(0.654887 0.755727 -0.755824 0.654775 177.341 82.2212)" fill="white"/>
<rect width="3" height="3" transform="matrix(0.654887 0.755727 -0.755824 0.654775 177.038 86.4521)" fill="white"/>
<rect width="3" height="3" transform="matrix(0.654887 0.755727 -0.755824 0.654775 176.735 90.6846)" fill="white"/>
<rect width="3" height="3" transform="matrix(0.654887 0.755727 -0.755824 0.654775 87.9639 63.0659)" fill="white"/>
<rect width="3" height="3" transform="matrix(0.654887 0.755727 -0.755824 0.654775 87.6606 67.2969)" fill="white"/>
<rect width="3" height="3" transform="matrix(0.654887 0.755727 -0.755824 0.654775 87.3574 71.5293)" fill="white"/>
<rect width="3" height="3" transform="matrix(0.654887 0.755727 -0.755824 0.654775 135.771 118.234)" fill="white"/>
<rect width="3" height="3" transform="matrix(0.654887 0.755727 -0.755824 0.654775 135.468 122.465)" fill="white"/>
<rect width="3" height="3" transform="matrix(0.654887 0.755727 -0.755824 0.654775 135.165 126.697)" fill="white"/>
<rect width="3" height="3" transform="matrix(0.654887 0.755727 -0.755824 0.654775 153.11 54.2593)" fill="white"/>
<rect width="3" height="3" transform="matrix(0.654887 0.755727 -0.755824 0.654775 152.807 58.4902)" fill="white"/>
<rect width="3" height="3" transform="matrix(0.654887 0.755727 -0.755824 0.654775 152.504 62.7227)" fill="white"/>
<rect width="3" height="3" transform="matrix(0.654887 0.755727 -0.755824 0.654775 201.572 110.183)" fill="white"/>
<rect width="3" height="3" transform="matrix(0.654887 0.755727 -0.755824 0.654775 201.269 114.414)" fill="white"/>
<rect width="3" height="3" transform="matrix(0.654887 0.755727 -0.755824 0.654775 200.965 118.646)" fill="white"/>
<rect width="3" height="3" transform="matrix(0.654887 0.755727 -0.755824 0.654775 111.54 90.272)" fill="white"/>
<rect width="3" height="3" transform="matrix(0.654887 0.755727 -0.755824 0.654775 111.237 94.5029)" fill="white"/>
<rect width="3" height="3" transform="matrix(0.654887 0.755727 -0.755824 0.654775 110.934 98.7354)" fill="white"/>
<rect width="3" height="3" transform="matrix(0.654887 0.755727 -0.755824 0.654775 160.001 146.196)" fill="white"/>
<rect width="3" height="3" transform="matrix(0.654887 0.755727 -0.755824 0.654775 159.698 150.427)" fill="white"/>
<rect width="3" height="3" transform="matrix(0.654887 0.755727 -0.755824 0.654775 159.395 154.659)" fill="white"/>
<rect width="3" height="3" transform="matrix(0.654887 0.755727 -0.755824 0.654775 131.947 72.5933)" fill="white"/>
<rect width="3" height="3" transform="matrix(0.654887 0.755727 -0.755824 0.654775 131.644 76.8242)" fill="white"/>
<rect width="3" height="3" transform="matrix(0.654887 0.755727 -0.755824 0.654775 131.341 81.0566)" fill="white"/>
<rect width="3" height="3" transform="matrix(0.654887 0.755727 -0.755824 0.654775 180.409 128.517)" fill="white"/>
<rect width="3" height="3" transform="matrix(0.654887 0.755727 -0.755824 0.654775 180.105 132.748)" fill="white"/>
<rect width="3" height="3" transform="matrix(0.654887 0.755727 -0.755824 0.654775 179.802 136.98)" fill="white"/>
<rect width="3" height="3" transform="matrix(0.654887 0.755727 -0.755824 0.654775 90.377 108.606)" fill="white"/>
<rect width="3" height="3" transform="matrix(0.654887 0.755727 -0.755824 0.654775 90.0737 112.837)" fill="white"/>
<rect width="3" height="3" transform="matrix(0.654887 0.755727 -0.755824 0.654775 89.7705 117.069)" fill="white"/>
<rect width="3" height="3" transform="matrix(0.654887 0.755727 -0.755824 0.654775 138.838 164.53)" fill="white"/>
<rect width="3" height="3" transform="matrix(0.654887 0.755727 -0.755824 0.654775 138.535 168.761)" fill="white"/>
<rect width="3" height="3" transform="matrix(0.654887 0.755727 -0.755824 0.654775 138.232 172.993)" fill="white"/>
<rect width="3" height="3" transform="matrix(0.654887 0.755727 -0.755824 0.654775 63.1675 132.178)" fill="white"/>
<rect width="3" height="3" transform="matrix(0.654887 0.755727 -0.755824 0.654775 62.8643 136.409)" fill="white"/>
<rect width="3" height="3" transform="matrix(0.654887 0.755727 -0.755824 0.654775 62.561 140.641)" fill="white"/>
<rect width="3" height="3" transform="matrix(0.654887 0.755727 -0.755824 0.654775 55.6089 138.726)" fill="white"/>
<rect width="3" height="3" transform="matrix(0.654887 0.755727 -0.755824 0.654775 55.3057 142.957)" fill="white"/>
<rect width="3" height="3" transform="matrix(0.654887 0.755727 -0.755824 0.654775 55.0024 147.189)" fill="white"/>
<rect width="3" height="3" transform="matrix(0.654887 0.755727 -0.755824 0.654775 48.8066 144.619)" fill="white"/>
<rect width="3" height="3" transform="matrix(0.654887 0.755727 -0.755824 0.654775 48.5034 148.85)" fill="white"/>
<rect width="3" height="3" transform="matrix(0.654887 0.755727 -0.755824 0.654775 48.2002 153.082)" fill="white"/>
<rect width="3" height="3" transform="matrix(0.654887 0.755727 -0.755824 0.654775 111.629 188.102)" fill="white"/>
<rect width="3" height="3" transform="matrix(0.654887 0.755727 -0.755824 0.654775 111.326 192.333)" fill="white"/>
<rect width="3" height="3" transform="matrix(0.654887 0.755727 -0.755824 0.654775 111.022 196.565)" fill="white"/>
<rect width="3" height="3" transform="matrix(0.654887 0.755727 -0.755824 0.654775 104.071 194.649)" fill="white"/>
<rect width="3" height="3" transform="matrix(0.654887 0.755727 -0.755824 0.654775 103.768 198.88)" fill="white"/>
<rect width="3" height="3" transform="matrix(0.654887 0.755727 -0.755824 0.654775 103.464 203.113)" fill="white"/>
<rect width="3" height="3" transform="matrix(0.654887 0.755727 -0.755824 0.654775 97.2681 200.542)" fill="white"/>
<rect width="3" height="3" transform="matrix(0.654887 0.755727 -0.755824 0.654775 96.9648 204.773)" fill="white"/>
<rect width="3" height="3" transform="matrix(0.654887 0.755727 -0.755824 0.654775 96.6616 209.006)" fill="white"/>
<rect width="3" height="3" transform="matrix(0.654887 0.755727 -0.755824 0.654775 108.372 45.3872)" fill="white"/>
<rect width="3" height="3" transform="matrix(0.654887 0.755727 -0.755824 0.654775 108.068 49.6182)" fill="white"/>
<rect width="3" height="3" transform="matrix(0.654887 0.755727 -0.755824 0.654775 107.765 53.8506)" fill="white"/>
<rect width="3" height="3" transform="matrix(0.654887 0.755727 -0.755824 0.654775 156.178 100.555)" fill="white"/>
<rect width="3" height="3" transform="matrix(0.654887 0.755727 -0.755824 0.654775 155.875 104.786)" fill="white"/>
<rect width="3" height="3" transform="matrix(0.654887 0.755727 -0.755824 0.654775 155.572 109.019)" fill="white"/>
<rect width="3" height="3" transform="matrix(0.654887 0.755727 -0.755824 0.654775 66.8013 81.3999)" fill="white"/>
<rect width="3" height="3" transform="matrix(0.654887 0.755727 -0.755824 0.654775 66.498 85.6309)" fill="white"/>
<rect width="3" height="3" transform="matrix(0.654887 0.755727 -0.755824 0.654775 66.1948 89.8633)" fill="white"/>
<rect width="3" height="3" transform="matrix(0.654887 0.755727 -0.755824 0.654775 114.608 136.568)" fill="white"/>
<rect width="3" height="3" transform="matrix(0.654887 0.755727 -0.755824 0.654775 114.305 140.799)" fill="white"/>
<rect width="3" height="3" transform="matrix(0.654887 0.755727 -0.755824 0.654775 114.001 145.031)" fill="white"/>
<rect width="3" height="3" transform="matrix(0.654887 0.755727 -0.755824 0.654775 39.5913 104.972)" fill="white"/>
<rect width="3" height="3" transform="matrix(0.654887 0.755727 -0.755824 0.654775 39.2881 109.203)" fill="white"/>
<rect width="3" height="3" transform="matrix(0.654887 0.755727 -0.755824 0.654775 38.9849 113.435)" fill="white"/>
<rect width="3" height="3" transform="matrix(0.654887 0.755727 -0.755824 0.654775 32.0332 111.52)" fill="white"/>
<rect width="3" height="3" transform="matrix(0.654887 0.755727 -0.755824 0.654775 31.73 115.75)" fill="white"/>
<rect width="3" height="3" transform="matrix(0.654887 0.755727 -0.755824 0.654775 31.4268 119.983)" fill="white"/>
<rect width="3" height="3" transform="matrix(0.654887 0.755727 -0.755824 0.654775 25.231 117.412)" fill="white"/>
<rect width="3" height="3" transform="matrix(0.654887 0.755727 -0.755824 0.654775 24.9277 121.643)" fill="white"/>
<rect width="3" height="3" transform="matrix(0.654887 0.755727 -0.755824 0.654775 24.6245 125.875)" fill="white"/>
<rect width="3" height="3" transform="matrix(0.654887 0.755727 -0.755824 0.654775 87.3979 160.14)" fill="white"/>
<rect width="3" height="3" transform="matrix(0.654887 0.755727 -0.755824 0.654775 87.0947 164.371)" fill="white"/>
<rect width="3" height="3" transform="matrix(0.654887 0.755727 -0.755824 0.654775 86.7915 168.603)" fill="white"/>
<rect width="3" height="3" transform="matrix(0.654887 0.755727 -0.755824 0.654775 79.8398 166.688)" fill="white"/>
<rect width="3" height="3" transform="matrix(0.654887 0.755727 -0.755824 0.654775 79.5366 170.918)" fill="white"/>
<rect width="3" height="3" transform="matrix(0.654887 0.755727 -0.755824 0.654775 79.2334 175.151)" fill="white"/>
<rect width="3" height="3" transform="matrix(0.654887 0.755727 -0.755824 0.654775 73.0376 172.581)" fill="white"/>
<rect width="3" height="3" transform="matrix(0.654887 0.755727 -0.755824 0.654775 72.7344 176.812)" fill="white"/>
<rect width="3" height="3" transform="matrix(0.654887 0.755727 -0.755824 0.654775 72.4312 181.044)" fill="white"/>
<rect width="3" height="3" transform="matrix(0.654887 0.755727 -0.755824 0.654775 136.337 21.1602)" fill="white"/>
<rect width="3" height="3" transform="matrix(0.654887 0.755727 -0.755824 0.654775 136.034 25.3911)" fill="white"/>
<rect width="3" height="3" transform="matrix(0.654887 0.755727 -0.755824 0.654775 135.73 29.6235)" fill="white"/>
<rect width="3" height="3" transform="matrix(0.654887 0.755727 -0.755824 0.654775 184.144 76.3286)" fill="white"/>
<rect width="3" height="3" transform="matrix(0.654887 0.755727 -0.755824 0.654775 183.84 80.5596)" fill="white"/>
<rect width="3" height="3" transform="matrix(0.654887 0.755727 -0.755824 0.654775 183.537 84.792)" fill="white"/>
<rect width="3" height="3" transform="matrix(0.654887 0.755727 -0.755824 0.654775 94.7666 57.1729)" fill="white"/>
<rect width="3" height="3" transform="matrix(0.654887 0.755727 -0.755824 0.654775 94.4634 61.4038)" fill="white"/>
<rect width="3" height="3" transform="matrix(0.654887 0.755727 -0.755824 0.654775 94.1602 65.6362)" fill="white"/>
<rect width="3" height="3" transform="matrix(0.654887 0.755727 -0.755824 0.654775 142.573 112.341)" fill="white"/>
<rect width="3" height="3" transform="matrix(0.654887 0.755727 -0.755824 0.654775 142.27 116.572)" fill="white"/>
<rect width="3" height="3" transform="matrix(0.654887 0.755727 -0.755824 0.654775 141.967 120.805)" fill="white"/>
<rect width="3" height="3" transform="matrix(0.654887 0.755727 -0.755824 0.654775 159.913 48.3667)" fill="white"/>
<rect width="3" height="3" transform="matrix(0.654887 0.755727 -0.755824 0.654775 159.609 52.5977)" fill="white"/>
<rect width="3" height="3" transform="matrix(0.654887 0.755727 -0.755824 0.654775 159.306 56.8301)" fill="white"/>
<rect width="3" height="3" transform="matrix(0.654887 0.755727 -0.755824 0.654775 208.375 104.291)" fill="white"/>
<rect width="3" height="3" transform="matrix(0.654887 0.755727 -0.755824 0.654775 208.071 108.521)" fill="white"/>
<rect width="3" height="3" transform="matrix(0.654887 0.755727 -0.755824 0.654775 207.768 112.754)" fill="white"/>
<rect width="3" height="3" transform="matrix(0.654887 0.755727 -0.755824 0.654775 118.342 84.3794)" fill="white"/>
<rect width="3" height="3" transform="matrix(0.654887 0.755727 -0.755824 0.654775 118.039 88.6104)" fill="white"/>
<rect width="3" height="3" transform="matrix(0.654887 0.755727 -0.755824 0.654775 117.736 92.8428)" fill="white"/>
<rect width="3" height="3" transform="matrix(0.654887 0.755727 -0.755824 0.654775 166.804 140.303)" fill="white"/>
<rect width="3" height="3" transform="matrix(0.654887 0.755727 -0.755824 0.654775 166.501 144.534)" fill="white"/>
<rect width="3" height="3" transform="matrix(0.654887 0.755727 -0.755824 0.654775 166.198 148.766)" fill="white"/>
<rect width="3" height="3" transform="matrix(0.654887 0.755727 -0.755824 0.654775 138.75 66.7002)" fill="white"/>
<rect width="3" height="3" transform="matrix(0.654887 0.755727 -0.755824 0.654775 138.446 70.9312)" fill="white"/>
<rect width="3" height="3" transform="matrix(0.654887 0.755727 -0.755824 0.654775 138.143 75.1636)" fill="white"/>
<rect width="3" height="3" transform="matrix(0.654887 0.755727 -0.755824 0.654775 187.211 122.624)" fill="white"/>
<rect width="3" height="3" transform="matrix(0.654887 0.755727 -0.755824 0.654775 186.908 126.855)" fill="white"/>
<rect width="3" height="3" transform="matrix(0.654887 0.755727 -0.755824 0.654775 186.605 131.087)" fill="white"/>
<rect width="3" height="3" transform="matrix(0.654887 0.755727 -0.755824 0.654775 97.1792 102.713)" fill="white"/>
<rect width="3" height="3" transform="matrix(0.654887 0.755727 -0.755824 0.654775 96.876 106.944)" fill="white"/>
<rect width="3" height="3" transform="matrix(0.654887 0.755727 -0.755824 0.654775 96.5728 111.176)" fill="white"/>
<rect width="3" height="3" transform="matrix(0.654887 0.755727 -0.755824 0.654775 145.641 158.637)" fill="white"/>
<rect width="3" height="3" transform="matrix(0.654887 0.755727 -0.755824 0.654775 145.338 162.868)" fill="white"/>
<rect width="3" height="3" transform="matrix(0.654887 0.755727 -0.755824 0.654775 145.035 167.1)" fill="white"/>
<rect width="3" height="3" transform="matrix(0.654887 0.755727 -0.755824 0.654775 69.9697 126.285)" fill="white"/>
<rect width="3" height="3" transform="matrix(0.654887 0.755727 -0.755824 0.654775 69.6665 130.516)" fill="white"/>
<rect width="3" height="3" transform="matrix(0.654887 0.755727 -0.755824 0.654775 69.3633 134.748)" fill="white"/>
<rect width="3" height="3" transform="matrix(0.654887 0.755727 -0.755824 0.654775 118.431 182.208)" fill="white"/>
<rect width="3" height="3" transform="matrix(0.654887 0.755727 -0.755824 0.654775 118.128 186.439)" fill="white"/>
<rect width="3" height="3" transform="matrix(0.654887 0.755727 -0.755824 0.654775 117.825 190.672)" fill="white"/>
<rect width="3" height="3" transform="matrix(0.654887 0.755727 -0.755824 0.654775 115.174 39.4941)" fill="white"/>
<rect width="3" height="3" transform="matrix(0.654887 0.755727 -0.755824 0.654775 114.871 43.7251)" fill="white"/>
<rect width="3" height="3" transform="matrix(0.654887 0.755727 -0.755824 0.654775 114.567 47.9575)" fill="white"/>
<rect width="3" height="3" transform="matrix(0.654887 0.755727 -0.755824 0.654775 162.98 94.6621)" fill="white"/>
<rect width="3" height="3" transform="matrix(0.654887 0.755727 -0.755824 0.654775 162.677 98.8931)" fill="white"/>
<rect width="3" height="3" transform="matrix(0.654887 0.755727 -0.755824 0.654775 162.374 103.125)" fill="white"/>
<rect width="3" height="3" transform="matrix(0.654887 0.755727 -0.755824 0.654775 73.6035 75.5068)" fill="white"/>
<rect width="3" height="3" transform="matrix(0.654887 0.755727 -0.755824 0.654775 73.3003 79.7378)" fill="white"/>
<rect width="3" height="3" transform="matrix(0.654887 0.755727 -0.755824 0.654775 72.9971 83.9702)" fill="white"/>
<rect width="3" height="3" transform="matrix(0.654887 0.755727 -0.755824 0.654775 121.41 130.675)" fill="white"/>
<rect width="3" height="3" transform="matrix(0.654887 0.755727 -0.755824 0.654775 121.107 134.906)" fill="white"/>
<rect width="3" height="3" transform="matrix(0.654887 0.755727 -0.755824 0.654775 120.804 139.138)" fill="white"/>
<rect width="3" height="3" transform="matrix(0.654887 0.755727 -0.755824 0.654775 46.394 99.0786)" fill="white"/>
<rect width="3" height="3" transform="matrix(0.654887 0.755727 -0.755824 0.654775 46.0908 103.31)" fill="white"/>
<rect width="3" height="3" transform="matrix(0.654887 0.755727 -0.755824 0.654775 45.7876 107.542)" fill="white"/>
<rect width="3" height="3" transform="matrix(0.654887 0.755727 -0.755824 0.654775 94.2007 154.247)" fill="white"/>
<rect width="3" height="3" transform="matrix(0.654887 0.755727 -0.755824 0.654775 93.8975 158.478)" fill="white"/>
<rect width="3" height="3" transform="matrix(0.654887 0.755727 -0.755824 0.654775 93.5942 162.71)" fill="white"/>
</g>
<defs>
<clipPath id="clip0_220_3528">
<rect width="156" height="156" fill="white" transform="matrix(0.654887 0.755727 -0.755824 0.654775 118 0)"/>
</clipPath>
</defs>
</svg>
